<svg width="26" height="26" viewBox="0 0 26 26" fill="none" xmlns="http://www.w3.org/2000/svg">
<path d="M19.5759 9.21943L10.3025 4.58277C4.07338 1.46277 1.51671 4.01943 4.63671 10.2486L5.57921 12.1336C5.85004 12.6861 5.85004 13.3253 5.57921 13.8778L4.63671 15.7519C1.51671 21.9811 4.06254 24.5378 10.3025 21.4178L19.5759 16.7811C23.7359 14.7011 23.7359 11.2994 19.5759 9.21943ZM16.0767 13.8128H10.2267C9.78254 13.8128 9.41421 13.4444 9.41421 13.0003C9.41421 12.5561 9.78254 12.1878 10.2267 12.1878H16.0767C16.5209 12.1878 16.8892 12.5561 16.8892 13.0003C16.8892 13.4444 16.5209 13.8128 16.0767 13.8128Z" fill="white"/>
</svg>
