<svg width="43" height="43" fill="none" xmlns="http://www.w3.org/2000/svg"><circle cx="21.5" cy="21.5" r="21.5" fill="#fff"/><path d="M29.038 19.436a1.214 1.214 0 00-.198-.014H17.553l.246-.108c.24-.108.46-.255.647-.434l3.165-2.999a1.08 1.08 0 00.166-1.437 1.187 1.187 0 00-1.6-.234 1.14 1.14 0 00-.117.093l-5.724 5.423a1.045 1.045 0 00-.001 1.534l5.725 5.423a1.19 1.19 0 001.717-.108 1.08 1.08 0 00-.166-1.437l-3.16-3.004a2.29 2.29 0 00-.572-.396l-.344-.147h11.242c.585.02 1.098-.366 1.208-.91.101-.592-.323-1.149-.947-1.245z" fill="#EB4040"/></svg>