<svg width="1086" height="155" viewBox="0 0 1086 155" fill="none" xmlns="http://www.w3.org/2000/svg">
<path d="M0.800001 116H70.96V97.92H20.08V0.799995H0.800001V116ZM116.913 118.48C123.153 118.48 128.619 117.413 133.313 115.28C138.059 113.093 142.006 110.133 145.153 106.4V116H162.193V29.6H142.833V74C142.833 80.9867 141.819 86.4 139.793 90.24C137.819 94.0267 135.286 96.6667 132.193 98.16C129.099 99.6 125.899 100.32 122.593 100.32C118.006 100.32 114.353 99.3333 111.633 97.36C108.913 95.3333 106.886 92.8 105.553 89.76C104.273 86.6667 103.419 83.4667 102.993 80.16C102.619 76.8533 102.433 73.8667 102.433 71.2V29.6H82.9125V77.84C82.9125 79.8667 83.0725 82.56 83.3925 85.92C83.7658 89.28 84.5392 92.8267 85.7125 96.56C86.8858 100.293 88.6992 103.84 91.1525 107.2C93.6058 110.507 96.9125 113.227 101.073 115.36C105.286 117.44 110.566 118.48 116.913 118.48ZM175.069 116H197.789L217.869 87.44L237.789 116H260.509L228.749 72.32L259.709 29.6H236.989L217.869 57.2L198.429 29.6H175.709L206.669 72.32L175.069 116ZM305.663 118.48C311.903 118.48 317.369 117.413 322.063 115.28C326.809 113.093 330.756 110.133 333.903 106.4V116H350.943V29.6H331.583V74C331.583 80.9867 330.569 86.4 328.543 90.24C326.569 94.0267 324.036 96.6667 320.943 98.16C317.849 99.6 314.649 100.32 311.343 100.32C306.756 100.32 303.103 99.3333 300.383 97.36C297.663 95.3333 295.636 92.8 294.303 89.76C293.023 86.6667 292.169 83.4667 291.743 80.16C291.369 76.8533 291.183 73.8667 291.183 71.2V29.6H271.663V77.84C271.663 79.8667 271.823 82.56 272.143 85.92C272.516 89.28 273.289 92.8267 274.463 96.56C275.636 100.293 277.449 103.84 279.903 107.2C282.356 110.507 285.663 113.227 289.823 115.36C294.036 117.44 299.316 118.48 305.663 118.48ZM373.419 116H392.779V72.08C392.779 67.0667 393.685 62.6133 395.499 58.72C397.365 54.8267 400.272 51.8133 404.219 49.68C406.885 48.1333 409.872 47.2267 413.179 46.96C416.485 46.64 419.445 46.8533 422.059 47.6V29.6C418.165 29.0133 414.165 29.0933 410.059 29.84C405.952 30.5333 402.299 31.9733 399.099 34.16C397.285 35.28 395.659 36.64 394.219 38.24C392.779 39.7867 391.525 41.52 390.459 43.44V29.6H373.419V116ZM446.029 154.4H464.109L512.269 29.6H492.989L469.549 91.44L445.389 29.6H425.309L460.269 115.36L446.029 154.4Z" fill="#55443D"/>
<path d="M548.52 116H567.56L591.08 34.08L614.6 116H633.64L667.24 0.799995H647L624.12 84L601.16 0.799995L580.92 0.959993L558.04 84L535.08 0.799995H514.84L548.52 116ZM708.923 118.4C717.563 118.4 725.109 116.48 731.563 112.64C738.016 108.747 743.029 103.387 746.603 96.56C750.229 89.68 752.043 81.76 752.043 72.8C752.043 63.8933 750.256 56.0267 746.683 49.2C743.109 42.32 738.096 36.9333 731.643 33.04C725.189 29.1467 717.616 27.2 708.923 27.2C700.443 27.2 692.976 29.12 686.523 32.96C680.069 36.8 675.029 42.1333 671.403 48.96C667.776 55.7867 665.963 63.7333 665.963 72.8C665.963 81.7067 667.723 89.6 671.243 96.48C674.816 103.307 679.829 108.667 686.283 112.56C692.736 116.453 700.283 118.4 708.923 118.4ZM708.923 100.32C701.509 100.32 695.883 97.84 692.043 92.88C688.256 87.8667 686.363 81.1733 686.363 72.8C686.363 64.64 688.176 58.0267 691.803 52.96C695.483 47.84 701.189 45.28 708.923 45.28C716.496 45.28 722.176 47.7867 725.963 52.8C729.749 57.76 731.643 64.4267 731.643 72.8C731.643 80.9067 729.749 87.52 725.963 92.64C722.229 97.76 716.549 100.32 708.923 100.32ZM769.509 116H788.949V62.8C788.949 57.4133 790.415 53.04 793.349 49.68C796.335 46.32 800.282 44.64 805.189 44.64C810.255 44.64 814.255 46.32 817.189 49.68C820.122 53.04 821.589 57.7333 821.589 63.76V116H840.789V62.8C840.789 57.0933 842.335 52.64 845.429 49.44C848.575 46.24 852.469 44.64 857.109 44.64C862.069 44.64 866.015 46.32 868.949 49.68C871.935 52.9867 873.429 57.6 873.429 63.52V116H892.709V58.64C892.709 49.2533 890.149 41.7067 885.029 36C879.962 30.2933 872.655 27.44 863.109 27.44C857.509 27.44 852.389 28.6667 847.749 31.12C843.109 33.5733 839.455 36.9333 836.789 41.2C834.495 36.9867 831.242 33.6533 827.029 31.2C822.815 28.6933 817.669 27.44 811.589 27.44C806.415 27.44 801.642 28.48 797.269 30.56C792.949 32.5867 789.375 35.3867 786.549 38.96V29.6H769.509V116ZM937.735 118.4C944.615 118.4 950.455 117.28 955.255 115.04C960.108 112.747 964.375 109.2 968.055 104.4V116H984.935V62.96C984.935 59.2267 984.775 55.7867 984.455 52.64C984.135 49.44 983.202 46.32 981.655 43.28C978.828 37.5733 974.482 33.4667 968.615 30.96C962.802 28.4533 956.055 27.2 948.375 27.2C938.242 27.2 930.162 29.4133 924.135 33.84C918.108 38.2667 914.028 44.1333 911.895 51.44L929.495 56.96C930.935 52.5333 933.468 49.4133 937.095 47.6C940.722 45.7867 944.482 44.88 948.375 44.88C954.242 44.88 958.562 46.08 961.335 48.48C964.108 50.8267 965.682 54.48 966.055 59.44C958.482 60.56 951.442 61.6533 944.935 62.72C938.482 63.7333 932.988 64.9867 928.455 66.48C921.628 68.8267 916.642 72.16 913.495 76.48C910.348 80.7467 908.775 86.0267 908.775 92.32C908.775 97.0667 909.868 101.413 912.055 105.36C914.295 109.307 917.575 112.48 921.895 114.88C926.215 117.227 931.495 118.4 937.735 118.4ZM941.575 103.04C937.042 103.04 933.575 102 931.175 99.92C928.828 97.84 927.655 95.2267 927.655 92.08C927.655 89.2533 928.562 86.96 930.375 85.2C932.242 83.44 934.828 81.9467 938.135 80.72C941.175 79.7067 944.828 78.8267 949.095 78.08C953.362 77.28 958.935 76.3467 965.815 75.28C965.762 77.3067 965.628 79.5733 965.415 82.08C965.202 84.5333 964.695 86.7467 963.895 88.72C963.255 90.6933 962.002 92.8 960.135 95.04C958.322 97.28 955.868 99.1733 952.775 100.72C949.682 102.267 945.948 103.04 941.575 103.04ZM1005.6 116H1025.12V71.6C1025.12 64.6133 1026.11 59.2267 1028.08 55.44C1030.11 51.6 1032.67 48.96 1035.76 47.52C1038.91 46.0267 1042.11 45.28 1045.36 45.28C1049.95 45.28 1053.6 46.2933 1056.32 48.32C1059.04 50.2933 1061.04 52.8267 1062.32 55.92C1063.66 58.96 1064.51 62.1333 1064.88 65.44C1065.31 68.7467 1065.52 71.7333 1065.52 74.4V116H1085.04V67.76C1085.04 65.7333 1084.86 63.04 1084.48 59.68C1084.16 56.32 1083.42 52.7733 1082.24 49.04C1081.07 45.3067 1079.26 41.7867 1076.8 38.48C1074.35 35.12 1071.02 32.4 1066.8 30.32C1062.64 28.1867 1057.39 27.12 1051.04 27.12C1044.8 27.12 1039.31 28.2133 1034.56 30.4C1029.87 32.5333 1025.95 35.4667 1022.8 39.2V29.6H1005.6V116Z" fill="#FF547D"/>
</svg>
