<svg width="100" height="100" viewBox="0 0 100 100" fill="none" xmlns="http://www.w3.org/2000/svg">
<path d="M39.81 22.6256H19.416L24.637 16.0996H45.032L39.81 22.6256ZM76.535 22.1366C82.23 18.9416 84.258 11.7366 81.063 6.0416C77.869 0.3456 70.662 -1.6814 64.966 1.5146C59.27 4.7106 57.242 11.9166 60.439 17.6116C63.633 23.3056 70.84 25.3316 76.535 22.1366ZM5.221 43.0206L0 49.5456H20.395L25.616 43.0196L5.221 43.0206ZM34.426 29.5596H14.031L8.81 36.0856H29.205L34.426 29.5596ZM95.77 44.8436L81.907 44.2756L72.132 26.9546L65.291 23.0536C64.124 22.4456 60.078 20.1036 56.072 23.2886L30.472 44.5736C28.558 46.3426 27.357 49.0406 29.885 51.9466C31.644 53.9166 34.685 53.7306 36.543 52.2996L53.707 36.8616L51.485 50.8996L41.098 69.8516L25.883 77.9846C21.271 81.3326 23.129 85.1186 23.883 86.1676C25.012 87.7456 28.167 90.0056 31.848 87.7236L51.003 76.1266L58.263 62.7436L71.08 73.0896L70.333 94.2376C70.429 97.4986 73.338 99.4836 75.883 99.5036C79.199 99.4216 81.287 97.3316 81.592 93.7386L82.184 75.9786C82.274 72.6326 82.955 68.5206 80.478 66.3686L67.564 54.8476L69.904 43.0106L77.619 53.6976L94.685 54.5066C98.257 54.6386 99.851 52.0096 99.98 49.8236C100.24 47.2096 97.866 45.1336 95.77 44.8436Z" fill="#FAF3EC"/>
</svg>
