<svg width="75" height="91" viewBox="0 0 75 91" fill="none" xmlns="http://www.w3.org/2000/svg">
<path d="M0.0620937 30.63V41.132C0.012226 53.0295 4.03931 64.5875 11.4772 73.8941C17.5784 81.9347 26.0893 87.8313 35.7776 90.7302C36.9124 91.0899 38.1313 91.0899 39.2661 90.7302C49.768 87.5814 58.0599 81.3566 64.5436 72.6473C69.6183 65.8791 72.9683 57.9842 74.3058 49.6411C74.7178 47.0185 74.9314 44.3689 74.9451 41.7145C74.9907 33.6059 74.9907 25.5063 74.9907 17.3977C75.0273 17.1012 74.9549 16.8015 74.7871 16.5539C74.6193 16.3064 74.3672 16.1277 74.0775 16.0508C62.1571 10.8089 50.2398 5.52754 38.3255 0.206736C38.0566 0.0708278 37.7594 0 37.4579 0C37.1565 0 36.8592 0.0708278 36.5904 0.206736C24.7126 5.49114 12.8257 10.7543 0.92964 15.9962C0.623774 16.1013 0.364711 16.3102 0.19777 16.5863C0.0308288 16.8625 -0.0333601 17.1884 0.0164332 17.5069C0.0468734 21.8813 0.0620937 26.2556 0.0620937 30.63ZM6.45454 33.1599C6.45454 29.5197 6.45454 25.8795 6.45454 22.2392C6.41363 21.971 6.47029 21.6969 6.6143 21.4666C6.75832 21.2363 6.9802 21.0649 7.2399 20.9833C17.066 16.6393 26.9104 12.2741 36.773 7.88762C36.9953 7.77565 37.2408 7.71731 37.4899 7.71731C37.7389 7.71731 37.9845 7.77565 38.2068 7.88762C48.0877 12.2862 57.9838 16.6697 67.8951 21.038C68.1323 21.1056 68.3374 21.2557 68.4731 21.4611C68.6088 21.6664 68.6662 21.9134 68.6348 22.1573C68.6348 28.8826 68.6987 35.6171 68.6348 42.3424C68.6207 44.546 68.4406 46.7454 68.096 48.9221C66.9857 55.8529 64.2029 62.4113 59.9867 68.0333C54.8427 75.2139 47.4568 80.4942 38.983 83.0493C38.0413 83.3477 37.0298 83.3477 36.0881 83.0493C28.0307 80.6467 20.9516 75.7469 15.8788 69.0617C9.7056 61.3339 6.3647 51.7375 6.40888 41.8601V33.1599H6.45454Z" fill="#FAF3EC"/>
<path d="M37.5584 14.0669V45.5003H37.5036V76.2329C37.0919 76.2241 36.6834 76.1598 36.289 76.0418C29.2529 73.9145 23.1203 69.5277 18.8468 63.5649C15.3374 58.8946 13.0184 53.445 12.089 47.6844C11.9285 46.7442 11.8158 45.7966 11.7511 44.8451C11.6872 44.0624 11.6598 43.2707 11.6598 42.4789V26.0979C11.6334 25.8913 11.6787 25.682 11.7884 25.5048C11.8981 25.3276 12.0655 25.1932 12.2625 25.1241L36.9191 14.2034C37.1203 14.114 37.3381 14.0675 37.5584 14.0669Z" fill="#FAF3EC"/>
</svg>
