<svg width="87" height="88" viewBox="0 0 87 88" fill="none" xmlns="http://www.w3.org/2000/svg">
<path d="M74.9199 44.4445L77.069 46.5899L78.6649 44.9968C83.8037 39.867 86.6337 33.047 86.6337 25.7931H83.5939C83.5939 32.2368 81.08 38.2952 76.5158 42.8514L74.9199 44.4445Z" fill="#FAF3EC"/>
<path d="M49.9299 36.3743C49.5013 36.3941 49.0742 36.4138 48.6365 36.4138C47.5756 36.4138 46.5345 36.3486 45.5177 36.2302L44.1543 58.4138C44.6924 58.5276 45.2304 58.6414 45.7608 58.7794C45.6529 57.907 45.5967 57.024 45.5967 56.1379C45.5967 52.137 46.7305 48.403 48.6653 45.2047L49.9299 36.3743Z" fill="#FAF3EC"/>
<path d="M50.1564 63.5603V66.3899C52.7949 67.0666 55.4106 67.8419 58.0096 68.681C56.2861 67.1485 54.4075 65.7937 52.3617 64.6588C51.6428 64.2612 50.9026 63.9017 50.1564 63.5603Z" fill="#FAF3EC"/>
<path d="M48.6365 56.1379C48.6365 57.3851 48.793 58.6171 49.0423 59.8263C50.6898 60.4348 52.2979 61.1524 53.8391 62.0081C57.8789 64.2491 61.3579 67.2305 64.2123 70.8491C65.6866 71.4059 67.1518 71.9931 68.6109 72.603L81.4022 67.1303C83.8265 63.9457 85.1138 60.1571 85.1138 56.1379C85.1138 52.451 83.9724 48.9037 81.9327 45.9117C81.5618 46.3229 81.2092 46.7477 80.814 47.1422L77.069 50.8822L70.6201 44.4445L73.6386 41.4313C72.2616 40.6181 71.108 39.5378 70.2402 38.2618C69.1367 38.057 68.0105 37.931 66.8751 37.931C56.818 37.931 48.6365 46.0983 48.6365 56.1379ZM66.8751 40.9655V44C60.1709 44 54.716 49.4454 54.716 56.1379H51.6762C51.6762 47.7719 58.4945 40.9655 66.8751 40.9655Z" fill="#FAF3EC"/>
<path d="M87 68.0361L72.5063 74.2371L80.4189 77.6206L71.8269 80.2317L87 86.7225L83.4906 77.3793L87 68.0361Z" fill="#FAF3EC"/>
<path d="M37.9972 63.8834C38.9958 64.0428 39.9883 64.2354 40.9823 64.416L41.0218 60.9582C40.0187 60.8292 39.011 60.7352 37.9972 60.7048V63.8834Z" fill="#FAF3EC"/>
<path d="M22.7634 29.5134L23.7574 34.1455C24.8928 34.6341 26.098 34.8966 27.358 34.8966C30.5939 34.8966 33.5151 33.2443 35.1733 30.4768L36.0685 28.9823L37.4303 30.0717C40.0141 32.1428 44.2045 33.3793 48.6365 33.3793C56.0505 33.3793 62.3155 29.9048 62.3155 25.7931C62.3155 23.8161 60.7986 21.8574 58.154 20.419L56.7664 19.6634L57.5765 18.3086C58.6875 16.4499 59.2757 14.3152 59.2757 12.1379C59.2757 5.44538 53.8208 0 47.1166 0C42.6891 0 38.6098 2.40331 36.4713 6.27076L35.5137 8.00193L34.0866 6.63186C32.6898 5.29062 30.8401 4.55172 28.8779 4.55172C24.6876 4.55172 21.2785 7.9549 21.2785 12.1379C21.2785 13.6218 21.7071 15.0526 22.5156 16.2785L23.3333 17.515L22.1144 18.3601C20.4243 19.5314 19.1795 21.2793 18.6034 23.2472C20.6629 24.7295 22.2056 26.9143 22.7634 29.5134Z" fill="#FAF3EC"/>
<path d="M42.5068 35.6885C40.9245 35.3017 39.4472 34.7691 38.1249 34.0954L39.4411 57.7477C40.0096 57.7872 40.5765 57.8433 41.1419 57.9101L42.5068 35.6885Z" fill="#FAF3EC"/>
<path d="M4.55967 32.2156C4.55967 32.8634 4.64022 33.5113 4.79677 34.141L11.7685 62.609C13.2382 62.345 14.7353 62.2069 16.2446 62.2069H16.8693C20.1857 62.2069 23.4777 62.3692 26.7592 62.609L19.792 30.1491C19.0609 26.7459 15.9984 24.2759 12.5133 24.2759C8.12837 24.2759 4.55967 27.8383 4.55967 32.2156ZM20.1279 50.0234L14.0483 51.5407L13.3112 48.5972L19.3908 47.08L20.1279 50.0234ZM18.608 43.9545L12.5285 45.4717L11.7913 42.5283L17.8709 41.011L18.608 43.9545ZM17.0881 37.8855L11.0086 39.4028L10.2714 36.4593L16.351 34.9421L17.0881 37.8855Z" fill="#FAF3EC"/>
<path d="M34.9575 63.4571V57.6552H36.3907L35.1353 35.0983C33.8115 36.1983 32.2627 37.004 30.5999 37.4683L34.69 63.4222C34.7781 63.4343 34.8678 63.445 34.9575 63.4571Z" fill="#FAF3EC"/>
<path d="M27.358 37.931C26.3929 37.931 25.4308 37.8127 24.4961 37.5881L29.9175 62.8457C30.4631 62.8988 31.0042 62.964 31.5483 63.0247L27.5921 37.9174C27.5146 37.9189 27.437 37.931 27.358 37.931Z" fill="#FAF3EC"/>
<path d="M26.5145 74.3448H22.7421C22.7634 74.5982 22.7983 74.8486 22.7983 75.1034C22.7983 76.3157 22.5856 77.528 22.1965 78.6766C23.9656 79.8054 25.9992 80.4138 28.1028 80.4138C28.9387 80.4138 29.691 79.9495 30.0649 79.203C30.2823 78.7691 30.3978 78.2805 30.3978 77.795C30.3978 76.9666 30.0604 76.1534 29.4737 75.5677C28.6834 74.7788 27.6331 74.3448 26.5145 74.3448Z" fill="#FAF3EC"/>
<path d="M12.4297 21.2459L13.3477 16.676C13.5681 15.579 13.679 14.4548 13.679 13.335C13.679 12.7858 13.5498 12.2366 13.3036 11.7465C12.8142 10.7679 11.542 10.3461 10.5678 10.8346L9.86712 11.1851L11.8597 21.2732C12.0482 21.2626 12.2382 21.2474 12.4297 21.2459Z" fill="#FAF3EC"/>
<path d="M75.6358 39.0902L77.5144 40.0279V38.4241C77.5144 35.153 75.426 32.2611 72.3179 31.2263L71.4348 30.932V32.3051C71.4348 35.197 73.0444 37.7975 75.6358 39.0902Z" fill="#FAF3EC"/>
<path d="M16.8693 65.2414H16.2446C11.0253 65.2414 5.94277 67.0788 1.93178 70.4137C0.703709 71.4363 0 72.9353 0 74.5314C0 75.9622 0.559319 77.3095 1.57309 78.3215C6.84558 83.5833 13.8553 86.4828 21.3119 86.4828C34.2492 86.4828 47.0862 84.5756 59.4642 80.8159L71.5701 77.1381L68.4847 75.8181C52.0836 68.7993 34.7158 65.2414 16.8693 65.2414ZM13.2337 74.7894L11.0846 76.9348L9.11934 74.973L7.15412 76.9348L5.005 74.7894L6.97021 72.8276L5.005 70.8658L7.15412 68.7204L9.11934 70.6822L11.0846 68.7204L13.2337 70.8658L11.2685 72.8276L13.2337 74.7894ZM32.784 80.5594C31.8903 82.3422 30.0969 83.4483 28.1028 83.4483C25.563 83.4483 23.1114 82.7367 20.9426 81.4455L19.599 84.128L16.8799 82.7701L18.8998 78.7372C19.4622 77.6145 19.7586 76.3582 19.7586 75.1034C19.7586 73.9154 19.4105 72.7639 18.7494 71.7761L16.9741 69.1179L19.5032 67.4353L21.2785 70.092C21.5384 70.4819 21.7633 70.8901 21.9578 71.3103H26.5145C28.4447 71.3103 30.258 72.0599 31.6228 73.4223C32.7764 74.5739 33.4376 76.167 33.4376 77.795C33.4376 78.7494 33.2111 79.7052 32.784 80.5594Z" fill="#FAF3EC"/>
<path d="M44.016 64.9683C45.0541 65.1822 46.0831 65.4462 47.1166 65.6859V62.3495C46.1119 62.0112 45.089 61.732 44.0555 61.4953L44.016 64.9683Z" fill="#FAF3EC"/>
<path d="M8.21652 22.1153C8.43235 22.0243 8.65577 21.9484 8.87767 21.871L6.58416 10.255C6.45041 9.58897 5.85765 9.10345 5.1737 9.10345C4.55207 9.10345 4.00339 9.49793 3.80732 10.0866C3.39087 11.3353 3.48511 12.6705 4.07482 13.8463L8.21652 22.1153Z" fill="#FAF3EC"/>
<path d="M51.8358 85.9866C53.2007 87.2778 54.9683 88 56.856 88C59.6435 88 62.1513 86.4524 63.3976 83.9641L64.1378 82.5668L60.3487 83.7183C57.5339 84.5726 54.6932 85.319 51.8358 85.9866Z" fill="#FAF3EC"/>
<path d="M4.46544 24.7644C4.82109 24.3806 5.19954 24.0194 5.60535 23.6902L2.10049 16.6897H1.85579C0.83138 16.6897 0 17.5196 0 18.5422C0 18.961 0.144389 19.3721 0.40733 19.6999L4.46544 24.7644Z" fill="#FAF3EC"/>
</svg>
