<svg width="89" height="89" viewBox="0 0 89 89" fill="none" xmlns="http://www.w3.org/2000/svg">
<path d="M7.49474 44.5C7.49474 26.0442 21.0789 10.68 38.8789 7.96316L44.7811 0H44.5C19.9547 0 0 19.9547 0 44.5C0 61.5505 9.64947 76.4463 23.7958 83.8474C23.7958 83.2853 23.8895 82.7232 23.9832 82.161L25.2011 75.9779C14.6147 69.5137 7.49474 57.8032 7.49474 44.5Z" fill="#FAF3EC"/>
<path d="M65.2042 5.15263C65.2042 5.71474 65.1105 6.27684 65.0168 6.83895L63.7989 13.0221C74.3853 19.3926 81.5053 31.1968 81.5053 44.5C81.5053 62.9558 67.9211 78.32 50.1211 81.0368L44.2189 89H44.5C69.0453 89 89 69.0453 89 44.5C89 27.4495 79.3505 12.5537 65.2042 5.15263Z" fill="#FAF3EC"/>
<path d="M68.3895 35.6937H51.4326L57.6158 5.24632C58.2716 2.06105 54.0558 0.187368 52.1821 2.81053L18.0811 48.4347C16.5821 50.4958 17.9874 53.3063 20.5168 53.3063H37.4737L31.3842 83.7537C30.7284 86.9389 34.9442 88.8126 36.8179 86.1895L70.8253 40.5653C72.4179 38.5042 70.9189 35.6937 68.3895 35.6937Z" fill="#FAF3EC"/>
</svg>
