<svg width="42" height="42" fill="none" xmlns="http://www.w3.org/2000/svg"><path d="M35 11.813a4.812 4.812 0 100-9.625 4.812 4.812 0 000 9.624z" fill="#3148F7"/><path d="M33.32 14.262c-2.747-.595-4.988-2.835-5.582-5.582-.228-1.067-.245-2.1-.053-3.08a1.73 1.73 0 00-1.697-2.1H12.25c-4.83 0-8.75 3.92-8.75 8.75v12.163c0 4.83 3.92 8.75 8.75 8.75h2.625c.49 0 1.12.315 1.4.7l2.625 3.482c1.155 1.54 3.045 1.54 4.2 0l2.625-3.483c.332-.437.84-.7 1.4-.7h2.642A8.723 8.723 0 0038.5 24.43v-8.418c0-1.102-1.015-1.907-2.1-1.697a7.96 7.96 0 01-3.08-.053zM14 21c-.98 0-1.75-.788-1.75-1.75s.77-1.75 1.75-1.75c.963 0 1.75.788 1.75 1.75S14.98 21 14 21zm7 0c-.98 0-1.75-.788-1.75-1.75s.77-1.75 1.75-1.75c.962 0 1.75.788 1.75 1.75S21.98 21 21 21zm7 0c-.98 0-1.75-.788-1.75-1.75s.77-1.75 1.75-1.75c.962 0 1.75.788 1.75 1.75S28.98 21 28 21z" fill="#ECECEC"/></svg>