<svg width="40" height="55" fill="none" xmlns="http://www.w3.org/2000/svg"><path opacity=".5" d="M20 0C11.082 0 3.827 7.215 3.827 16.084v9.187c0 .104-.13.28-.232.313-.874.29-1.585.542-2.235.791C.585 26.672 0 27.527 0 28.363V49.47c0 .83.581 1.686 1.352 1.99A50.652 50.652 0 0020 55a50.655 50.655 0 0018.649-3.54c.77-.304 1.351-1.16 1.351-1.99V28.363c0-.836-.585-1.69-1.36-1.988-.651-.25-1.361-.5-2.235-.79-.102-.034-.231-.21-.231-.315v-9.186C36.174 7.215 28.918 0 20 0zm-4.405 34.792c0-2.422 1.972-4.38 4.405-4.38 2.433 0 4.405 1.958 4.405 4.38 0 1.604-.91 2.947-2.203 3.709v7.242c0 1.211-.985 2.19-2.202 2.19a2.195 2.195 0 01-2.203-2.19v-7.242c-1.292-.762-2.202-2.105-2.202-3.71zm15.017-18.708v7.926a50.82 50.82 0 00-10.61-1.122c-3.56 0-7.129.377-10.614 1.121v-7.925c0-5.82 4.76-10.553 10.612-10.553s10.612 4.734 10.612 10.553z" fill="#fff"/></svg>