<svg width="44" height="44" fill="none" xmlns="http://www.w3.org/2000/svg"><path d="M34.833 27.5a7.331 7.331 0 00-7.333 7.333c0 1.375.385 2.677 1.063 3.777a7.278 7.278 0 006.27 3.557 7.278 7.278 0 006.27-3.557 7.188 7.188 0 001.064-3.777 7.331 7.331 0 00-7.334-7.333zm3.795 6.545l-3.905 3.612a1.399 1.399 0 01-.935.366 1.36 1.36 0 01-.971-.403l-1.815-1.815a1.383 1.383 0 010-1.943 1.383 1.383 0 011.943 0l.88.88 2.933-2.714a1.384 1.384 0 011.944.074c.513.55.476 1.411-.074 1.943z" fill="url(#paint8)"/><path d="M40.333 13.842v.825A1.839 1.839 0 0138.5 16.5h-33a1.839 1.839 0 01-1.833-1.833v-.844a7.582 7.582 0 017.59-7.59h21.468a7.613 7.613 0 017.608 7.609zM3.667 21.084v9.093a7.582 7.582 0 007.59 7.59h11.476c1.064 0 1.98-.899 1.889-1.962-.257-2.805.641-5.848 3.134-8.268a9.309 9.309 0 013.667-2.218c2.292-.734 4.51-.642 6.472.018 1.191.403 2.438-.459 2.438-1.724v-2.548a1.839 1.839 0 00-1.833-1.833h-33a1.867 1.867 0 00-1.833 1.852zm11 10.541H11a1.385 1.385 0 01-1.375-1.375c0-.752.623-1.375 1.375-1.375h3.666c.752 0 1.375.623 1.375 1.375s-.623 1.375-1.375 1.375z" fill="#E6E6E6"/><defs><linearGradient id="paint8" x1="41.192" y1="40.693" x2="28.593" y2="28.156" gradientUnits="userSpaceOnUse"><stop stop-color="#2E36FD"/><stop offset="1" stop-color="#3CACCF"/></linearGradient></defs></svg>