<svg width="10" height="12" viewBox="0 0 10 12" fill="none" xmlns="http://www.w3.org/2000/svg">
<path d="M9.53532 2.61573C8.73032 2.53573 7.92532 2.47573 7.11532 2.43073V2.42573L7.00532 1.77573C6.93032 1.31573 6.82032 0.625732 5.65032 0.625732H4.34032C3.17532 0.625732 3.06532 1.28573 2.98532 1.77073L2.88032 2.41073C2.41532 2.44073 1.95032 2.47073 1.48532 2.51573L0.465323 2.61573C0.255323 2.63573 0.105323 2.82073 0.125323 3.02573C0.145323 3.23073 0.325323 3.38073 0.535323 3.36073L1.55532 3.26073C4.17532 3.00073 6.81532 3.10073 9.46532 3.36573C9.48032 3.36573 9.49032 3.36573 9.50532 3.36573C9.69532 3.36573 9.86032 3.22073 9.88032 3.02573C9.89532 2.82073 9.74532 2.63573 9.53532 2.61573Z" fill="#FF547D"/>
<path d="M8.61487 4.07073C8.49487 3.94573 8.32987 3.87573 8.15987 3.87573H1.83987C1.66987 3.87573 1.49987 3.94573 1.38487 4.07073C1.26987 4.19573 1.20487 4.36573 1.21487 4.54073L1.52487 9.67073C1.57987 10.4307 1.64987 11.3807 3.39487 11.3807H6.60487C8.34987 11.3807 8.41988 10.4357 8.47487 9.67073L8.78487 4.54573C8.79487 4.36573 8.72987 4.19573 8.61487 4.07073ZM5.82987 8.87573H4.16487C3.95987 8.87573 3.78987 8.70573 3.78987 8.50073C3.78987 8.29573 3.95987 8.12573 4.16487 8.12573H5.82987C6.03487 8.12573 6.20487 8.29573 6.20487 8.50073C6.20487 8.70573 6.03487 8.87573 5.82987 8.87573ZM6.24987 6.87573H3.74987C3.54487 6.87573 3.37487 6.70573 3.37487 6.50073C3.37487 6.29573 3.54487 6.12573 3.74987 6.12573H6.24987C6.45487 6.12573 6.62487 6.29573 6.62487 6.50073C6.62487 6.70573 6.45487 6.87573 6.24987 6.87573Z" fill="#FF547D"/>
</svg>
