<svg width="10" height="14" viewBox="0 0 10 14" fill="none" xmlns="http://www.w3.org/2000/svg">
<path d="M4.66417 11.2457C4.75339 11.3359 4.87211 11.3862 4.99558 11.3862C5.11905 11.3862 5.23777 11.3359 5.32699 11.2457L9.82313 6.50479C9.88879 6.43452 9.93335 6.34535 9.95124 6.24846C9.96912 6.15157 9.95954 6.05126 9.92369 5.96009C9.88783 5.86892 9.8273 5.79095 9.74968 5.73594C9.67205 5.68094 9.58078 5.65134 9.4873 5.65086H6.9266V1.1479C6.9266 0.997159 6.89848 0.84789 6.84386 0.70862C6.78923 0.56935 6.70916 0.442806 6.60822 0.336213C6.50728 0.229621 6.38745 0.145067 6.25556 0.0873792C6.12368 0.0296916 5.98232 0 5.83957 0H4.16043C4.01767 0 3.87632 0.0296916 3.74444 0.0873792C3.61255 0.145067 3.49272 0.229621 3.39178 0.336213C3.29084 0.442806 3.21077 0.56935 3.15614 0.70862C3.10151 0.84789 3.0734 0.997159 3.0734 1.1479V5.65086H0.512696C0.419215 5.65134 0.327947 5.68094 0.250322 5.73594C0.172697 5.79095 0.112167 5.86892 0.0763131 5.96009C0.0404591 6.05126 0.0308751 6.15157 0.0487617 6.24846C0.0666483 6.34535 0.11121 6.43452 0.176866 6.50479L4.66417 11.2457Z" fill="#FF547D"/>
<path d="M9.31939 12.6433H0.680611C0.593157 12.6379 0.505576 12.6514 0.423244 12.683C0.340913 12.7146 0.265567 12.7636 0.201833 12.8271C0.138098 12.8906 0.0873181 12.9671 0.0526106 13.0521C0.0179031 13.137 0 13.2285 0 13.3211C0 13.4136 0.0179031 13.5051 0.0526106 13.59C0.0873181 13.675 0.138098 13.7515 0.201833 13.815C0.265567 13.8785 0.340913 13.9275 0.423244 13.9591C0.505576 13.9907 0.593157 14.0043 0.680611 13.9988H9.31939C9.40684 14.0043 9.49442 13.9907 9.57676 13.9591C9.65909 13.9275 9.73443 13.8785 9.79817 13.815C9.8619 13.7515 9.91268 13.675 9.94739 13.59C9.9821 13.5051 10 13.4136 10 13.3211C10 13.2285 9.9821 13.137 9.94739 13.0521C9.91268 12.9671 9.8619 12.8906 9.79817 12.8271C9.73443 12.7636 9.65909 12.7146 9.57676 12.683C9.49442 12.6514 9.40684 12.6379 9.31939 12.6433Z" fill="#FF547D"/>
</svg>
