<svg width="13" height="13" viewBox="0 0 13 13" fill="none" xmlns="http://www.w3.org/2000/svg">
<path fill-rule="evenodd" clip-rule="evenodd" d="M4.60518 12.2979L10.9509 4.09171C11.2958 3.64918 11.4184 3.13755 11.3034 2.6166C11.2038 2.14302 10.9126 1.69272 10.4757 1.35112L9.41045 0.504879C8.48312 -0.232672 7.33353 -0.155035 6.67443 0.691208L5.96169 1.61586C5.86972 1.73154 5.89271 1.90234 6.00767 1.99551C6.00767 1.99551 7.80869 3.43956 7.84701 3.47061C7.96964 3.58707 8.0616 3.74234 8.08459 3.92867C8.12291 4.29356 7.87 4.63516 7.49447 4.68175C7.3182 4.70504 7.1496 4.65069 7.02697 4.54976L5.13399 3.04361C5.04202 2.97451 4.90407 2.98926 4.82743 3.08243L0.328711 8.9052C0.0374822 9.27009 -0.0621487 9.74367 0.0374822 10.2017L0.612276 12.6939C0.642932 12.8259 0.75789 12.919 0.895841 12.919L3.42493 12.888C3.88477 12.8802 4.31395 12.6706 4.60518 12.2979ZM8.14649 11.5217H12.2704C12.6728 11.5217 13 11.8532 13 12.2608C13 12.6692 12.6728 12.9999 12.2704 12.9999H8.14649C7.74413 12.9999 7.41688 12.6692 7.41688 12.2608C7.41688 11.8532 7.74413 11.5217 8.14649 11.5217Z" fill="#EB4040"/>
</svg>
