<svg width="19" height="33" fill="none" xmlns="http://www.w3.org/2000/svg"><path d="M19 9.404C19 4.21 14.747 0 9.5 0S0 4.21 0 9.404c0 4.557 3.275 8.357 7.622 9.22v6.652h-4.03v3.717h4.03V33h3.756v-4.007h4.03v-3.717h-4.03v-6.653C15.725 17.761 19 13.961 19 9.403zm-15.408 0c0-3.23 2.645-5.848 5.908-5.848 3.263 0 5.908 2.618 5.908 5.848S12.763 15.25 9.5 15.25c-3.263 0-5.908-2.618-5.908-5.847z" fill="url(#paint0_linear)"/><defs><linearGradient id="paint0_linear" x1="17.738" y1="29.683" x2="-6.718" y2="15.673" gradientUnits="userSpaceOnUse"><stop stop-color="#FD2E91"/><stop offset="1" stop-color="#CF3CA6"/></linearGradient></defs></svg>