<svg width="58" height="83" fill="none" xmlns="http://www.w3.org/2000/svg"><path d="M15.708 14.536c-.922.163-1.342 2.14-.936 4.416.364 2.095 1.304 3.713 2.17 3.833 1.103 2.98 2.847 5.873 5.003 7.993 1.222 1.2 2.574 2.147 4.016 2.722a8.26 8.26 0 003.088.615 8.26 8.26 0 003.09-.615c1.492-.596 2.89-1.588 4.145-2.85 2.105-2.11 3.802-4.96 4.885-7.888.83-.245 1.702-1.81 2.057-3.81.385-2.169.022-4.058-.81-4.376.028-.531.048-1.064.048-1.613C42.442 5.103 37.86.534 30.631.046c-6.3-.424-11.05 2.093-13.21 6.278-.727 1.406-1.144 3.169-1.305 5.078a13.111 13.111 0 00-.383 3.103h.023v.027c-.018 0-.033.003-.048.004zm1.437 2.394c.091-.269.21-.477.366-.588.025-.014.052-.017.071-.03.044-.025.092-.054.142-.06h.001a.5.5 0 01.134-.004.75.75 0 01.39.182h.001c0-.008 0-.013.002-.02l.002-.02c.047-.48.575-3.976 3.421-5.023.032-.014.073-.019.108-.03.19-.063.38-.124.59-.166a5.29 5.29 0 01.812-.092c.27-.011.553-.006.852.022 0 0 2.057.76 4.625.77 1.159.003 2.422-.145 3.648-.585.216-.004.432-.008.64-.008.2 0 .393.002.578.01 1.631.062 2.751.91 3.92 1.458h.002l-.002-.015c-.053-.535-.453-1.078-.435-1.444.012.003.02.008.032.011.173.054.334.128.486.21.844.906 1.66 2.419 2.309 4.892 0 .012 0 .02.002.03.002 0 .002 0 .003-.003 0-.002 0 0 .005-.002v.005l.008-.012.014-.008a.898.898 0 01.212-.12.685.685 0 01.175-.042c.038-.002.074-.005.111.001a.502.502 0 01.125.04c.54.252.77 1.518.513 2.962-.198 1.105-.627 2.015-1.082 2.408a.931.931 0 01-.276.167c-.016.004-.028.004-.044.008l-.12.013h-.035c-.018 0-.035.003-.052.005-.009 0-.017.003-.025.002a.508.508 0 01-.248-.127c-.008-.007-.018-.012-.026-.02v.004c-.998 3.125-2.9 6.24-5.306 8.13a9.214 9.214 0 01-2.23 1.315c-.014.006-.028.01-.043.015l-.888.273c-.024.005-.048.013-.071.02-.09.02-.172.058-.262.074-.027.006-.056.007-.085.01l-.345.036-.084.007c-.242.028-.485.072-.73.073l-.013.001c-1.667 0-3.243-.665-4.654-1.748-2.444-1.882-4.38-5.027-5.394-8.187a.807.807 0 01-.006-.017.566.566 0 01-.271.146h-.002a.58.58 0 01-.126 0c-.168-.016-.343-.112-.509-.279-.426-.427-.813-1.29-.997-2.324-.012-.068-.017-.137-.028-.204.012-.726.04-1.429.089-2.122z" fill="url(#paint0_linear)"/><path d="M18.718 21.859h-.002a.58.58 0 01-.126 0" fill="url(#paint1_linear)"/><path d="M7.26 45.667a12.44 12.44 0 01.774-3.363 1.316 1.316 0 01.077-.884c.546-1.2 1.24-2.229 2.008-2.973.422-.41.876-.738 1.35-.978a2.08 2.08 0 01.833-.969c.118-.67.395-1.366.797-2.02-.18.034-.362.062-.537.104-.784.185-3.459.424-6.048 3.526-1.331 1.595-2.64 3.938-3.656 7.452-.043.151-.069.305-.098.458a4.449 4.449 0 011.74-.353h2.76z" fill="url(#paint2_linear)"/><path d="M16.537 42.958a1.327 1.327 0 01-.539-.58c-.781-1.644-1.844-2.706-2.707-2.706-.882 0-1.998 1.149-2.775 2.857-.128.278-.35.505-.624.639-.31.844-.511 1.705-.59 2.498H17.2a10.58 10.58 0 00-.663-2.708z" fill="url(#paint3_linear)"/><path d="M55.234 46.018c-.03-.152-.054-.305-.096-.454-1.08-3.738-2.49-6.159-3.912-7.753-2.507-2.825-5.031-3.047-5.794-3.227-.19-.045-.386-.077-.58-.112.07.131.143.262.208.4.275.592.466 1.208.569 1.832.178.06.342.133.498.216a3.458 3.458 0 011.403 4.659 3.417 3.417 0 01-6.296-.625 3.436 3.436 0 01.257-2.62 3.402 3.402 0 012.033-1.66c-.218-.86-.708-1.837-1.493-2.498-1.288-.077-2.478-.13-3.288-.382-.18 1.495-4.493 6.398-7.32 9.48l-1.225-4.754c.92-.547 1.122-1.75 1.122-2.753h-4.647c0 .993.201 2.187 1.103 2.74l-1.205 4.762c-2.828-3.077-7.143-7.983-7.32-9.475-.78.244-1.913.301-3.147.374-.867.66-1.504 1.618-1.736 2.441.274.205.497.482.643.806 1.318.625 2.482 1.94 3.374 3.815.15.317.169.673.059.997.436 1.132.71 2.34.799 3.44h34.254c.617 0 1.203.126 1.737.35z" fill="url(#paint4_linear)"/><path d="M44.511 41.817a1.856 1.856 0 001.852-1.861 1.856 1.856 0 00-1.852-1.861 1.856 1.856 0 00-1.85 1.86c0 1.029.828 1.862 1.85 1.862z" fill="url(#paint5_linear)"/><path d="M51.211 81.139H6.787a.928.928 0 00-.926.93c0 .514.415.931.926.931H51.21a.929.929 0 00.926-.93.929.929 0 00-.926-.931z" fill="url(#paint6_linear)"/><path d="M55.234 47.88a4.448 4.448 0 00-1.736-.352H4.5c-.616 0-1.204.127-1.739.353A4.532 4.532 0 000 52.054v.106l.018.104 4.067 23.715c.06 2.442 2.056 4.41 4.499 4.41h40.832c2.444 0 4.439-1.968 4.5-4.41l4.066-23.715.018-.104v-.106a4.535 4.535 0 00-2.766-4.174zM29 65.906c-1.07 0-1.939-.87-1.939-1.947 0-1.076.87-1.945 1.939-1.945 1.07 0 1.936.87 1.936 1.945A1.94 1.94 0 0129 65.906z" fill="url(#paint7_linear)"/><defs><linearGradient id="paint0_linear" x1="54.147" y1="74.658" x2="-12.693" y2="28.183" gradientUnits="userSpaceOnUse"><stop stop-color="#2E36FD"/><stop offset="1" stop-color="#3CACCF"/></linearGradient><linearGradient id="paint1_linear" x1="54.147" y1="74.658" x2="-12.693" y2="28.183" gradientUnits="userSpaceOnUse"><stop stop-color="#2E36FD"/><stop offset="1" stop-color="#3CACCF"/></linearGradient><linearGradient id="paint2_linear" x1="54.147" y1="74.658" x2="-12.693" y2="28.183" gradientUnits="userSpaceOnUse"><stop stop-color="#2E36FD"/><stop offset="1" stop-color="#3CACCF"/></linearGradient><linearGradient id="paint3_linear" x1="54.147" y1="74.658" x2="-12.693" y2="28.183" gradientUnits="userSpaceOnUse"><stop stop-color="#2E36FD"/><stop offset="1" stop-color="#3CACCF"/></linearGradient><linearGradient id="paint4_linear" x1="54.147" y1="74.658" x2="-12.693" y2="28.183" gradientUnits="userSpaceOnUse"><stop stop-color="#2E36FD"/><stop offset="1" stop-color="#3CACCF"/></linearGradient><linearGradient id="paint5_linear" x1="54.147" y1="74.658" x2="-12.693" y2="28.183" gradientUnits="userSpaceOnUse"><stop stop-color="#2E36FD"/><stop offset="1" stop-color="#3CACCF"/></linearGradient><linearGradient id="paint6_linear" x1="54.147" y1="74.658" x2="-12.693" y2="28.183" gradientUnits="userSpaceOnUse"><stop stop-color="#2E36FD"/><stop offset="1" stop-color="#3CACCF"/></linearGradient><linearGradient id="paint7_linear" x1="54.147" y1="74.658" x2="-12.693" y2="28.183" gradientUnits="userSpaceOnUse"><stop stop-color="#2E36FD"/><stop offset="1" stop-color="#3CACCF"/></linearGradient></defs></svg>