<svg width="76" height="66" fill="none" xmlns="http://www.w3.org/2000/svg"><path d="M56 0c10 0 20 7 20 19 0 3.659-1.27 7.312-3.406 11h-5.5l-4.406-7.063c-.419-.653-1.235-1.031-2-.906-.766.126-1.437.748-1.626 1.5l-1.968 8.313-4.125-19.282c-.334-.964-.851-1.553-1.844-1.593-1-.055-1.97.756-2.094 1.75l-2.75 21.218-2.343-8.5c-.228-.875-1.128-1.536-2.032-1.5-.904.037-1.718.765-1.875 1.657l-1.843 9.281-1.407-2.781A2.045 2.045 0 0035 31h-8.563c-.692-1.194-1.958-2-3.437-2a4 4 0 000 8c1.47 0 2.742-.82 3.438-2h7.343l3.438 6.875c.37.74 1.243 1.203 2.062 1.094.82-.11 1.525-.784 1.688-1.594l1.343-6.719 2.75 9.875c.25.876 1.155 1.503 2.063 1.438.908-.065 1.723-.817 1.844-1.719l2.5-19.438 3.562 16.594c.188.883 1.035 1.584 1.938 1.594.902.01 1.767-.683 1.968-1.563l2.907-12.343 2.468 3.968A2.033 2.033 0 0066 34h3.969C62.496 44.169 49.358 54.642 38 66 21 49 0 34 0 19 0 7 9 0 19 0c7 0 14 7 19 11C43 7 49 0 56 0z" fill="url(#paint0_linear)"/><defs><linearGradient id="paint0_linear" x1="70.951" y1="59.366" x2="14.775" y2="-5" gradientUnits="userSpaceOnUse"><stop stop-color="#2E36FD"/><stop offset="1" stop-color="#3CACCF"/></linearGradient></defs></svg>