<svg width="60" height="76" fill="none" xmlns="http://www.w3.org/2000/svg"><path d="M53.967 8.054h-1.44V67.5H8.047V8.054H6.033A6.029 6.029 0 000 14.078v55.898C0 73.302 2.7 76 6.033 76h47.935A6.028 6.028 0 0060 69.976V14.078c0-3.326-2.7-6.024-6.033-6.024z" fill="url(#paint0_linear)"/><path d="M40.266 3.523H35.93a2.186 2.186 0 01-1.92-1.14 4.565 4.565 0 00-8.02 0 2.187 2.187 0 01-1.92 1.14h-5.065v7.451h21.262V3.523z" fill="url(#paint1_linear)"/><path d="M43.664 24.659H16.336v4.366h27.328v-4.366z" fill="url(#paint2_linear)"/><path d="M43.664 34.725H16.336v4.366h27.328v-4.366z" fill="url(#paint3_linear)"/><path d="M43.664 44.791H16.336v4.366h27.328v-4.366z" fill="url(#paint4_linear)"/><path d="M43.664 54.858H30.183v4.366h13.481v-4.366z" fill="url(#paint5_linear)"/><defs><linearGradient id="paint0_linear" x1="56.014" y1="68.361" x2="-7.417" y2="18.533" gradientUnits="userSpaceOnUse"><stop stop-color="#2E36FD"/><stop offset="1" stop-color="#3CACCF"/></linearGradient><linearGradient id="paint1_linear" x1="56.014" y1="68.361" x2="-7.417" y2="18.533" gradientUnits="userSpaceOnUse"><stop stop-color="#2E36FD"/><stop offset="1" stop-color="#3CACCF"/></linearGradient><linearGradient id="paint2_linear" x1="56.014" y1="68.361" x2="-7.417" y2="18.533" gradientUnits="userSpaceOnUse"><stop stop-color="#2E36FD"/><stop offset="1" stop-color="#3CACCF"/></linearGradient><linearGradient id="paint3_linear" x1="56.014" y1="68.361" x2="-7.417" y2="18.533" gradientUnits="userSpaceOnUse"><stop stop-color="#2E36FD"/><stop offset="1" stop-color="#3CACCF"/></linearGradient><linearGradient id="paint4_linear" x1="56.014" y1="68.361" x2="-7.417" y2="18.533" gradientUnits="userSpaceOnUse"><stop stop-color="#2E36FD"/><stop offset="1" stop-color="#3CACCF"/></linearGradient><linearGradient id="paint5_linear" x1="56.014" y1="68.361" x2="-7.417" y2="18.533" gradientUnits="userSpaceOnUse"><stop stop-color="#2E36FD"/><stop offset="1" stop-color="#3CACCF"/></linearGradient></defs></svg>