<svg width="74" height="72" fill="none" xmlns="http://www.w3.org/2000/svg"><path d="M44.656 35.682c.71-.706 1.273-1.687 1.77-2.778-.5-.074-1-.148-1.515-.148-2.73 0-5.295 1.058-7.219 2.98-3.98 3.976-3.98 10.444 0 14.418a10.146 10.146 0 007.22 2.98c2.727 0 5.291-1.059 7.215-2.98a10.138 10.138 0 002.226-3.344c-2.958-1.3-5.234-2.21-5.234-2.21s-8.931-4.458-4.463-8.918z" fill="url(#paint0_linear)"/><path d="M44.914 21.284c2.166 0 4.282.316 6.3.923.038-.14.082-.273.117-.418.8-3.183.585-5.982-.48-6.247-.525-.13-1.163.388-1.765 1.333.033-1.386.04-2.638.04-3.494C49.127 8.92 44.662 0 35.73 0c-8.931 0-13.397 8.92-13.397 13.38 0 .857.008 2.109.041 3.495-.605-.945-1.24-1.463-1.768-1.333-1.065.265-1.279 3.064-.483 6.247.75 3.01 2.134 5.258 3.172 5.281.447 2.46 1.11 4.753 2.07 6.55a21.557 21.557 0 014.213-5.994c4.093-4.091 9.54-6.342 15.336-6.342z" fill="url(#paint1_linear)"/><path d="M70.054 59.049c-.669-2.19-1.646-4.308-3.07-5.526-.587-.502-1.424-1.06-2.386-1.639-.179.398-.309.81-.515 1.2l5.97 5.965z" fill="url(#paint2_linear)"/><path d="M44.911 64.61a21.574 21.574 0 01-15.336-6.341c-3.945-3.943-6.022-9.035-6.287-14.207-.57.344-.96.543-.96.543s-13.956 5.577-17.862 8.92C.559 56.87 0 66.905 0 66.905h59.877l-4.815-4.81a21.612 21.612 0 01-10.15 2.516z" fill="url(#paint3_linear)"/><path d="M60.877 53.487c4.925-7.422 4.111-17.52-2.431-24.057-7.477-7.463-19.595-7.463-27.067 0-7.472 7.465-7.472 19.57 0 27.034 6.545 6.538 16.655 7.348 24.086 2.43L67.466 70.88a3.829 3.829 0 005.413 0 3.818 3.818 0 000-5.406L60.877 53.487zm-24.989-1.529c-4.973-4.967-4.973-13.054 0-18.022 4.973-4.967 13.07-4.967 18.044 0 4.973 4.968 4.973 13.055 0 18.022-4.974 4.968-13.068 4.968-18.044 0z" fill="url(#paint4_linear)"/><defs><linearGradient id="paint0_linear" x1="69.084" y1="64.763" x2="7.248" y2="1.525" gradientUnits="userSpaceOnUse"><stop stop-color="#2E36FD"/><stop offset="1" stop-color="#3CACCF"/></linearGradient><linearGradient id="paint1_linear" x1="69.084" y1="64.763" x2="7.248" y2="1.525" gradientUnits="userSpaceOnUse"><stop stop-color="#2E36FD"/><stop offset="1" stop-color="#3CACCF"/></linearGradient><linearGradient id="paint2_linear" x1="69.084" y1="64.763" x2="7.248" y2="1.525" gradientUnits="userSpaceOnUse"><stop stop-color="#2E36FD"/><stop offset="1" stop-color="#3CACCF"/></linearGradient><linearGradient id="paint3_linear" x1="69.084" y1="64.763" x2="7.248" y2="1.525" gradientUnits="userSpaceOnUse"><stop stop-color="#2E36FD"/><stop offset="1" stop-color="#3CACCF"/></linearGradient><linearGradient id="paint4_linear" x1="69.084" y1="64.763" x2="7.248" y2="1.525" gradientUnits="userSpaceOnUse"><stop stop-color="#2E36FD"/><stop offset="1" stop-color="#3CACCF"/></linearGradient></defs></svg>