<svg width="98" height="49" fill="none" xmlns="http://www.w3.org/2000/svg"><path d="M97.447 29.12L74.444 6.26a3 3 0 00.424 0 3.16 3.16 0 001.802-.545c.53-.36.937-.874 1.165-1.472a3.114 3.114 0 00-.87-3.468 3.156 3.156 0 00-3.571-.397 3.14 3.14 0 00-1.312 1.344 3.116 3.116 0 00-.305 1.849L49 26.29 26.195 3.607a3.098 3.098 0 00-.311-1.832 3.12 3.12 0 00-1.306-1.33 3.143 3.143 0 00-3.543.399 3.095 3.095 0 00-.867 3.44 3.114 3.114 0 001.151 1.464 3.14 3.14 0 001.785.55c.14.009.283.009.424 0L.553 29.12A1.875 1.875 0 000 30.447a1.866 1.866 0 00.553 1.326l16.793 16.702c.088.089.186.167.292.234.067.047.14.085.217.113l.113.066.245.075h.103c.243.05.493.05.736 0h.094l.254-.075.113-.066c.073-.03.143-.068.208-.113.107-.064.205-.143.292-.234l7.963-7.91 15.021-14.95 3.336 3.328L30.237 44.95a1.871 1.871 0 00-.403 2.042 1.892 1.892 0 001.741 1.154 1.89 1.89 0 001.33-.553L49 31.595l16.096 16c.352.351.83.55 1.328.552a1.892 1.892 0 001.742-1.154 1.864 1.864 0 00-.403-2.042L51.667 28.943l3.336-3.328 15.021 14.95 7.963 7.91c.087.09.185.17.292.234.065.045.135.083.208.113l.113.066.254.075h.094c.243.05.493.05.736 0h.103l.245-.075.113-.066a.946.946 0 00.217-.113c.106-.067.204-.145.292-.234l16.793-16.702a1.872 1.872 0 00.41-2.044 1.873 1.873 0 00-.41-.608zm-84.945-6.56l5.296-5.268 5.758 5.68-5.287 5.258-5.767-5.67zm5.74 11.003l5.729 5.699-5.287 5.267-5.74-5.736 5.297-5.23zM34.6 28.671l-5.74-5.699 5.74-5.708 5.73 5.708-5.73 5.699zm37.204-3.056l5.287 5.268-5.73 5.708-5.296-5.268 5.74-5.708zm0-5.295l-5.739-5.708 5.74-5.699 5.729 5.699-5.73 5.708zm15.917 15.83l-5.296-5.267 5.739-5.699 5.287 5.258-5.73 5.708z" fill="url(#paint0_linear)"/><defs><linearGradient id="paint0_linear" x1="91.489" y1="44.075" x2="57.714" y2="-23.14" gradientUnits="userSpaceOnUse"><stop stop-color="#2E36FD"/><stop offset="1" stop-color="#3CACCF"/></linearGradient></defs></svg>