<svg width="11" height="15" viewBox="0 0 11 15" fill="none" xmlns="http://www.w3.org/2000/svg">
<path d="M5.50006 0C3.04762 0 1.05234 1.96781 1.05234 4.38665V6.89198C1.05234 6.92045 1.01671 6.96842 0.988731 6.9776C0.748212 7.0567 0.552877 7.12525 0.374067 7.19324C0.16083 7.27432 0 7.50738 0 7.7354V13.4919C0 13.7184 0.159791 13.9517 0.371677 14.0345C2.01108 14.6752 3.73652 15 5.50004 15C7.26356 15 8.98899 14.6751 10.6285 14.0344C10.8403 13.9516 11 13.7184 11 13.4919V7.7354C11 7.50738 10.8392 7.27432 10.6259 7.19316C10.447 7.12518 10.2517 7.05663 10.0113 6.97752C9.98342 6.96835 9.94779 6.92035 9.94779 6.89188V4.38658C9.94766 1.96781 7.95251 0 5.50006 0ZM4.28861 9.48864C4.28861 8.8283 4.83099 8.29393 5.49999 8.29393C6.16893 8.29393 6.71131 8.82825 6.71131 9.48864C6.71131 9.9262 6.46112 10.2925 6.10563 10.5002V12.4755C6.10563 12.8057 5.83474 13.0728 5.49996 13.0728C5.16515 13.0728 4.89429 12.8057 4.89429 12.4755V10.5002C4.53882 10.2925 4.28861 9.9262 4.28861 9.48864ZM8.41842 4.38658V6.54822C7.46139 6.34511 6.47955 6.24225 5.50045 6.24217C4.5218 6.24217 3.54017 6.34506 2.58165 6.54799V4.38658C2.58165 2.79946 3.8908 1.50832 5.49999 1.50832C7.10915 1.50829 8.41842 2.79946 8.41842 4.38658Z" fill="#EB4040"/>
</svg>
