<svg width="13" height="15" fill="none" xmlns="http://www.w3.org/2000/svg"><path d="M6.501 0c-2.075 0-3.77 1.752-3.77 3.895 0 2.142 1.695 3.894 3.77 3.894s3.77-1.752 3.77-3.894C10.272 1.752 8.577 0 6.502 0zm6.471 10.901a3.668 3.668 0 00-.378-.714c-.758-1.156-1.927-1.922-3.244-2.109a.677.677 0 00-.478.12 3.89 3.89 0 01-2.371.799c-.856 0-1.68-.273-2.371-.8a.603.603 0 00-.478-.119 4.639 4.639 0 00-3.243 2.11 4.23 4.23 0 00-.38.713.372.372 0 00.017.324c.132.238.297.476.445.68.23.323.477.612.757.884.23.238.494.46.758.68A7.304 7.304 0 006.485 15a7.304 7.304 0 004.478-1.53c.264-.205.527-.443.758-.68a7.78 7.78 0 001.202-1.565c.082-.102.099-.222.05-.324z" fill="#3148F7"/></svg>