<svg width="53" height="53" fill="none" xmlns="http://www.w3.org/2000/svg"><circle cx="26.5" cy="26.5" r="26.5" fill="#fff"/><path d="M26.5 12.872a5.483 5.483 0 00-5.48 5.474v2.836a5.483 5.483 0 005.48 5.475 5.483 5.483 0 005.48-5.475v-2.836a5.483 5.483 0 00-5.48-5.474z" fill="url(#paint0)"/><path d="M38.584 33.79a13.896 13.896 0 00-7.897-6.235.218.218 0 00-.219.053c-1.552 1.53-3.482 2.723-3.964 3.011-.515-.329-2.684-1.74-3.973-3.01a.219.219 0 00-.219-.054 13.893 13.893 0 00-7.896 6.236.219.219 0 000 .221c2.49 4.24 7.12 6.874 12.084 6.874 4.963 0 9.593-2.634 12.084-6.874a.218.218 0 000-.221zm-4.632 1.633c0 .121-.115.213-.236.213h-1.484c-.12 0-.252.104-.252.225v1.533c0 .121-.065.213-.186.213h-1.333c-.12 0-.235-.092-.235-.213v-1.533c0-.12-.083-.224-.204-.224h-1.548a.216.216 0 01-.22-.214v-1.32c0-.12.1-.218.22-.218h1.548c.121 0 .204-.099.204-.22V32.13c0-.12.114-.216.235-.216h1.318c.12 0 .2.096.2.216v1.54c0 .12.117.215.239.215h1.498c.121 0 .236.102.236.223v1.315z" fill="url(#paint1)"/><defs><linearGradient id="paint0" x1="37.005" y1="38.07" x2="13.208" y2="17.591" gradientUnits="userSpaceOnUse"><stop stop-color="#2E36FD"/><stop offset="1" stop-color="#3CACCF"/></linearGradient><linearGradient id="paint1" x1="37.005" y1="38.07" x2="13.208" y2="17.591" gradientUnits="userSpaceOnUse"><stop stop-color="#2E36FD"/><stop offset="1" stop-color="#3CACCF"/></linearGradient></defs></svg>