<svg width="53" height="53" fill="none" xmlns="http://www.w3.org/2000/svg"><circle cx="26.5" cy="26.5" r="26.5" fill="#fff"/><path fill-rule="evenodd" clip-rule="evenodd" d="M27.001 21.45a4.55 4.55 0 013.735 1.95.76.76 0 001.245-.867 6.062 6.062 0 00-4.98-2.6.759.759 0 000 1.516z" fill="url(#paint2)"/><path fill-rule="evenodd" clip-rule="evenodd" d="M33.069 26a.759.759 0 11-1.517 0 .759.759 0 011.517 0z" fill="url(#paint3)"/><path fill-rule="evenodd" clip-rule="evenodd" d="M14.307 12.952a4.705 4.705 0 01-.204-1.366c0-1.723.956-3.34 2.64-4.633C19.06 5.177 22.788 4 27 4s7.941 1.177 10.257 2.953c1.684 1.292 2.64 2.91 2.64 4.633 0 .464-.07.921-.204 1.366.12.117.238.235.355.355a4.705 4.705 0 011.366-.204c1.723 0 3.34.956 4.633 2.64C47.823 18.06 49 21.788 49 26s-1.177 7.941-2.953 10.257c-1.292 1.684-2.91 2.64-4.633 2.64-.465 0-.921-.07-1.366-.204-.117.12-.235.238-.355.355.135.445.204.901.204 1.366 0 1.723-.956 3.34-2.64 4.633C34.94 46.823 31.212 48 27 48s-7.941-1.177-10.257-2.953c-1.684-1.292-2.64-2.91-2.64-4.633 0-.465.07-.921.204-1.366-.12-.117-.238-.235-.355-.355a4.705 4.705 0 01-1.366.204c-1.723 0-3.34-.956-4.633-2.64C6.177 33.94 5 30.212 5 26s1.177-7.941 2.953-10.257c1.292-1.684 2.91-2.64 4.633-2.64.464 0 .921.07 1.366.204.117-.12.235-.238.355-.355zm24.066 27.262A18.129 18.129 0 0127 44.207a18.13 18.13 0 01-11.373-3.993 3.474 3.474 0 00-.006.2c0 1.291.784 2.462 2.046 3.429 2.104 1.614 5.506 2.64 9.333 2.64s7.229-1.026 9.333-2.64c1.262-.968 2.046-2.138 2.046-3.43 0-.066-.002-.133-.006-.199zm-8.944-5.439a9.102 9.102 0 01-2.429.328 9.102 9.102 0 01-2.43-.328l-2.63 7.133a16.67 16.67 0 005.06.782 16.67 16.67 0 005.06-.782l-2.63-7.133zM12.786 14.627a3.474 3.474 0 00-.2-.006c-1.291 0-2.462.784-3.429 2.046-1.614 2.104-2.64 5.506-2.64 9.333s1.026 7.229 2.64 9.333c.967 1.262 2.138 2.046 3.43 2.046.066 0 .133-.002.199-.006A18.129 18.129 0 018.793 26c0-4.3 1.495-8.255 3.993-11.373zm28.428 22.746c.066.004.133.006.2.006 1.291 0 2.462-.784 3.429-2.046 1.614-2.104 2.64-5.506 2.64-9.333s-1.026-7.229-2.64-9.333c-.968-1.262-2.138-2.046-3.43-2.046-.066 0-.133.002-.199.006A18.129 18.129 0 0145.207 26c0 4.3-1.495 8.255-3.993 11.373zM27 18.413A7.59 7.59 0 0134.586 26 7.59 7.59 0 0127 33.586 7.59 7.59 0 0119.414 26 7.59 7.59 0 0127 18.414zM11.092 20.94A16.67 16.67 0 0010.31 26c0 1.764.275 3.465.782 5.06l7.133-2.63a9.102 9.102 0 01-.328-2.43c0-.841.114-1.655.328-2.43l-7.133-2.63zm31.815 0l-7.132 2.63c.214.775.328 1.589.328 2.43 0 .841-.114 1.655-.328 2.43l7.133 2.63A16.67 16.67 0 0043.69 26a16.67 16.67 0 00-.782-5.06zM32.06 10.092A16.668 16.668 0 0027 9.31c-1.764 0-3.465.275-5.06.782l2.63 7.133a9.102 9.102 0 012.43-.328c.841 0 1.655.114 2.43.328l2.63-7.133zm6.313 1.694c.004-.066.006-.133.006-.2 0-1.291-.784-2.462-2.046-3.429-2.104-1.614-5.506-2.64-9.333-2.64s-7.229 1.026-9.333 2.64c-1.262.967-2.046 2.138-2.046 3.43 0 .066.002.133.006.199A18.128 18.128 0 0127 7.793c4.3 0 8.255 1.495 11.373 3.993z" fill="url(#paint4)"/><defs><linearGradient id="paint2" x1="46.077" y1="43.578" x2="8.279" y2="5.968" gradientUnits="userSpaceOnUse"><stop stop-color="#2E36FD"/><stop offset="1" stop-color="#3CACCF"/></linearGradient><linearGradient id="paint3" x1="46.077" y1="43.578" x2="8.279" y2="5.968" gradientUnits="userSpaceOnUse"><stop stop-color="#2E36FD"/><stop offset="1" stop-color="#3CACCF"/></linearGradient><linearGradient id="paint4" x1="46.077" y1="43.578" x2="8.279" y2="5.968" gradientUnits="userSpaceOnUse"><stop stop-color="#2E36FD"/><stop offset="1" stop-color="#3CACCF"/></linearGradient></defs></svg>