<svg width="53" height="53" fill="none" xmlns="http://www.w3.org/2000/svg"><circle cx="26.5" cy="26.5" r="26.5" fill="#fff"/><path d="M27.346 38.76h.004V18.413c-.339-.172-4-3.085-9.358-3.368L17.098 15v20.35l.809.04c5.83.277 8.747 3.017 9.44 3.37z" fill="url(#paint5)"/><path d="M29.049 18.054V38.41a30.283 30.283 0 015.438-.452c3.568.026 5.824.674 6.513.785V18.406c-.28-.031-2.822-.775-6.513-.82a28.33 28.33 0 00-5.438.468zm2.549 14.661v-9.95l7.479 4.975-7.48 4.975z" fill="url(#paint6)"/><path d="M33.297 25.933v3.614l2.716-1.807-2.716-1.807z" fill="url(#paint7)"/><path d="M22.768 38.108c-1.266-.502-2.924-.929-4.943-1.025l-2.427-.116v-19.06c-1.953.29-2.998.603-3.398.693V39l1.055-.264c3.152-.785 6.49-.99 9.713-.628z" fill="url(#paint8)"/><defs><linearGradient id="paint5" x1="39.073" y1="36.588" x2="18.801" y2="12.214" gradientUnits="userSpaceOnUse"><stop stop-color="#2E36FD"/><stop offset="1" stop-color="#3CACCF"/></linearGradient><linearGradient id="paint6" x1="39.073" y1="36.588" x2="18.801" y2="12.214" gradientUnits="userSpaceOnUse"><stop stop-color="#2E36FD"/><stop offset="1" stop-color="#3CACCF"/></linearGradient><linearGradient id="paint7" x1="39.073" y1="36.588" x2="18.801" y2="12.214" gradientUnits="userSpaceOnUse"><stop stop-color="#2E36FD"/><stop offset="1" stop-color="#3CACCF"/></linearGradient><linearGradient id="paint8" x1="39.073" y1="36.588" x2="18.801" y2="12.214" gradientUnits="userSpaceOnUse"><stop stop-color="#2E36FD"/><stop offset="1" stop-color="#3CACCF"/></linearGradient></defs></svg>