<svg width="53" height="53" fill="none" xmlns="http://www.w3.org/2000/svg"><circle cx="26.5" cy="26.5" r="26.5" fill="#fff"/><path d="M42.928 15.391a.937.937 0 00-.866-.578h-2.875v-2.875a.936.936 0 00-1.6-.663l-3.75 3.813a.937.937 0 00-.275.662v3.362L25.4 27.275a.937.937 0 101.325 1.326l8.163-8.163h3.362a.937.937 0 00.663-.275l3.812-3.75a.937.937 0 00.203-1.022z" fill="url(#paint9)"/><path d="M39.74 21.878a2.79 2.79 0 01-1.49.435h-2.586l-.603.603a10.242 10.242 0 011.314 5.022c0 5.686-4.626 10.312-10.313 10.312-5.686 0-10.312-4.626-10.312-10.312 0-5.686 4.626-10.313 10.313-10.313 1.823 0 3.534.48 5.021 1.314l.604-.603V15.75c0-.536.155-1.046.434-1.49-1.896-.842-3.935-1.322-6.06-1.322-8.27 0-15.062 6.729-15.062 15C11 36.208 17.792 43 26.062 43c8.271 0 15-6.792 15-15.062 0-2.125-.48-4.164-1.322-6.06z" fill="url(#paint10)"/><path d="M33.654 24.323l-3.867 3.867c-.132 1.951-1.74 3.498-3.724 3.498a3.75 3.75 0 01-3.75-3.75c0-1.985 1.546-3.592 3.497-3.725l3.867-3.867c-1.1-.526-2.316-.846-3.614-.846-4.653 0-8.438 3.785-8.438 8.438 0 4.652 3.785 8.437 8.438 8.437 4.652 0 8.437-3.785 8.437-8.437 0-1.299-.32-2.515-.846-3.615z" fill="url(#paint11)"/><defs><linearGradient id="paint9" x1="40.874" y1="39.784" x2="13.385" y2="12.431" gradientUnits="userSpaceOnUse"><stop stop-color="#2E36FD"/><stop offset="1" stop-color="#3CACCF"/></linearGradient><linearGradient id="paint10" x1="40.874" y1="39.784" x2="13.385" y2="12.431" gradientUnits="userSpaceOnUse"><stop stop-color="#2E36FD"/><stop offset="1" stop-color="#3CACCF"/></linearGradient><linearGradient id="paint11" x1="40.874" y1="39.784" x2="13.385" y2="12.431" gradientUnits="userSpaceOnUse"><stop stop-color="#2E36FD"/><stop offset="1" stop-color="#3CACCF"/></linearGradient></defs></svg>