<svg width="28" height="28" fill="none" xmlns="http://www.w3.org/2000/svg"><path d="M19.292.564a8.034 8.034 0 00-5.72 2.37L2.37 14.136A8.04 8.04 0 000 19.856c0 4.461 3.63 8.091 8.09 8.091a8.032 8.032 0 005.72-2.37l11.202-11.201a8.036 8.036 0 002.37-5.721c0-4.461-3.629-8.09-8.09-8.09zM8.744 13.043L5.01 16.776a4.33 4.33 0 00-1.276 3.08.622.622 0 11-1.245 0 5.56 5.56 0 011.641-3.96l3.734-3.733a.622.622 0 11.88.88zm14.508-.427l-5.16 5.16-7.92-7.92 5.16-5.162a5.561 5.561 0 013.96-1.64 5.607 5.607 0 015.601 5.6 5.563 5.563 0 01-1.64 3.962z" fill="url(#paint0_linear)"/><defs><linearGradient id="paint0_linear" x1="25.563" y1="25.195" x2="2.041" y2="1.789" gradientUnits="userSpaceOnUse"><stop stop-color="#2E36FD"/><stop offset="1" stop-color="#3CACCF"/></linearGradient></defs></svg>