<svg width="42" height="42" viewBox="0 0 42 42" fill="none" xmlns="http://www.w3.org/2000/svg">
<path d="M35 11.8125C37.6579 11.8125 39.8125 9.65787 39.8125 7C39.8125 4.34213 37.6579 2.1875 35 2.1875C32.3421 2.1875 30.1875 4.34213 30.1875 7C30.1875 9.65787 32.3421 11.8125 35 11.8125Z" fill="#EB4040"/>
<path d="M33.32 14.2625C30.5725 13.6675 28.3325 11.4275 27.7375 8.68C27.51 7.6125 27.4925 6.58 27.685 5.6C27.9125 4.515 27.1075 3.5 25.9875 3.5H12.25C7.42 3.5 3.5 7.42 3.5 12.25V24.4125C3.5 29.2425 7.42 33.1625 12.25 33.1625H14.875C15.365 33.1625 15.995 33.4775 16.275 33.8625L18.9 37.345C20.055 38.885 21.945 38.885 23.1 37.345L25.725 33.8625C26.0575 33.425 26.565 33.1625 27.125 33.1625H29.7675C34.5975 33.1625 38.5 29.26 38.5 24.43V16.0125C38.5 14.91 37.485 14.105 36.4 14.315C35.42 14.49 34.3875 14.49 33.32 14.2625ZM14 21C13.02 21 12.25 20.2125 12.25 19.25C12.25 18.2875 13.02 17.5 14 17.5C14.9625 17.5 15.75 18.2875 15.75 19.25C15.75 20.2125 14.98 21 14 21ZM21 21C20.02 21 19.25 20.2125 19.25 19.25C19.25 18.2875 20.02 17.5 21 17.5C21.9625 17.5 22.75 18.2875 22.75 19.25C22.75 20.2125 21.98 21 21 21ZM28 21C27.02 21 26.25 20.2125 26.25 19.25C26.25 18.2875 27.02 17.5 28 17.5C28.9625 17.5 29.75 18.2875 29.75 19.25C29.75 20.2125 28.98 21 28 21Z" fill="#ECECEC"/>
</svg>
