<svg width="38" height="38" viewBox="0 0 38 38" fill="none" xmlns="http://www.w3.org/2000/svg">
<circle cx="19" cy="19" r="19" fill="#EB4040"/>
<path d="M14.3364 13.9331C14.1138 13.9331 13.9333 14.1135 13.9333 14.3361C13.9333 14.5587 14.1138 14.7392 14.3364 14.7392H23.6637C23.8862 14.7392 24.0667 14.5587 24.0667 14.3361C24.0667 14.1135 23.8862 13.9331 23.6637 13.9331H14.3364ZM13.9333 18.3664C13.9333 18.589 14.1138 18.7695 14.3364 18.7695H23.6637C23.8862 18.7695 24.0667 18.589 24.0667 18.3664C24.0667 18.1439 23.8862 17.9634 23.6637 17.9634H14.3364C14.1138 17.9634 13.9333 18.1439 13.9333 18.3664ZM13.9333 22.3967C13.9333 22.6193 14.1138 22.7998 14.3364 22.7998H23.6637C23.8862 22.7998 24.0667 22.6193 24.0667 22.3967C24.0667 22.1742 23.8862 21.9937 23.6637 21.9937H14.3364C14.1138 21.9937 13.9333 22.1742 13.9333 22.3967Z" fill="#F5F5F5"/>
</svg>
