<svg width="38" height="39" fill="none" xmlns="http://www.w3.org/2000/svg"><path d="M23.58 26.339l2.738 4.915.836-1.237-2.737-4.916-.837 1.238z" fill="url(#paint0_linear)"/><path d="M17.598 35.192l4.159 2.81 3.5-5.179-2.737-4.915-4.922 7.284z" fill="url(#paint1_linear)"/><path d="M34.105 19.73c1.49-2.202 1.618-5 .337-7.3l-.66-1.186-8.305 12.288 2.737 4.916 1.896-2.806-1.26-2.264 2.57.325 2.685-3.972z" fill="url(#paint2_linear)"/><path d="M28.93 7.964c-1.912-1.291-4.53-.768-5.837 1.166l-3.383 5.005-1.386-.937 3.382-5.005c1.307-1.934.816-4.559-1.095-5.85-1.912-1.292-4.53-.77-5.837 1.165-1.307 1.934-.816 4.559 1.095 5.85a4.13 4.13 0 002.555.702l-6.84 10.123a17.148 17.148 0 00-2.77 7.244L8.586 29.1l1.468-.836a17.148 17.148 0 005.688-5.271l6.842-10.123a4.13 4.13 0 001.604 2.11c1.91 1.291 4.53.768 5.837-1.166 1.307-1.934.816-4.559-1.096-5.85zm-12.113-.009c-1.146-.775-1.441-2.35-.657-3.51.785-1.16 2.356-1.474 3.502-.7 1.147.776 1.442 2.35.658 3.51-.785 1.162-2.356 1.475-3.503.7zm8.32 5.622c-1.148-.775-1.442-2.35-.658-3.51.784-1.16 2.355-1.474 3.502-.7 1.147.776 1.442 2.35.657 3.51-.784 1.162-2.355 1.475-3.502.7z" fill="url(#paint3_linear)"/><defs><linearGradient id="paint0_linear" x1="22.002" y1="34.662" x2="13.534" y2="3.317" gradientUnits="userSpaceOnUse"><stop stop-color="#2E36FD"/><stop offset="1" stop-color="#3CACCF"/></linearGradient><linearGradient id="paint1_linear" x1="22.002" y1="34.662" x2="13.534" y2="3.317" gradientUnits="userSpaceOnUse"><stop stop-color="#2E36FD"/><stop offset="1" stop-color="#3CACCF"/></linearGradient><linearGradient id="paint2_linear" x1="22.002" y1="34.662" x2="13.534" y2="3.317" gradientUnits="userSpaceOnUse"><stop stop-color="#2E36FD"/><stop offset="1" stop-color="#3CACCF"/></linearGradient><linearGradient id="paint3_linear" x1="22.002" y1="34.662" x2="13.534" y2="3.317" gradientUnits="userSpaceOnUse"><stop stop-color="#2E36FD"/><stop offset="1" stop-color="#3CACCF"/></linearGradient></defs></svg>