<svg width="21" height="25" fill="none" xmlns="http://www.w3.org/2000/svg"><path d="M20.035 8.321c-.929-1.866-2.478-2.852-4.48-2.852-1.569 0-3.01.378-3.941.695a3.46 3.46 0 01-2.066.05c-.351-.099-2.04-.745-4.104-.745-2.001 0-3.55.986-4.48 2.852C.095 10.071 0 12.1 0 12.891 0 17.065 3.263 25 7.778 25c.58 0 1.206-.118 1.858-.352.557-.2 1.17-.2 1.728 0 .652.234 1.277.352 1.858.352C17.761 25 21 17.016 21 12.89c0-.79-.094-2.82-.965-4.569z" fill="#fff"/><path d="M11.237 5.463c.11-.031.153-.05.335-.108a.146.146 0 00.101-.148c-.01-.197-.006-.425-.006-1.456 0-.546.179-1.087.505-1.524l.15-.202a1.235 1.235 0 00-.112-1.6L12.108.32a1.089 1.089 0 00-1.625.09C9.022 2.246 9.39 4.017 9.326 5.21a.145.145 0 00.099.144c.37.125.989.344 1.812.108zm-6.029-1.74c.886.752 2.042.99 3.206.963a.146.146 0 00.141-.147c-.004-1.008-.04-1.814.377-2.933a.147.147 0 00-.036-.16C7.66.314 5.859.25 4.213.532a.39.39 0 00-.324.385c0 .069.015 1.7 1.319 2.807z" fill="#fff"/></svg>