<svg width="24" height="24" fill="none" xmlns="http://www.w3.org/2000/svg"><path d="M21.818 5.56A5.566 5.566 0 0016.258 0c-1.484 0-2.88.578-3.93 1.628l-10.7 10.7A5.523 5.523 0 000 16.258a5.566 5.566 0 005.56 5.56 5.523 5.523 0 003.93-1.628l10.7-10.7a5.525 5.525 0 001.628-3.93zM7.383 11.2l-3.44 3.44a2.304 2.304 0 00-.67 1.618.545.545 0 11-1.091 0c0-.889.36-1.76.989-2.389l3.44-3.44a.545.545 0 11.772.771zm11.264-3.253l-5.236 5.237-4.778-4.777 5.237-5.236a3.356 3.356 0 012.389-.99 3.382 3.382 0 013.377 3.377c0 .902-.351 1.75-.989 2.389zm2.179 3.069a.546.546 0 00-.688.069l-9.053 9.053a.545.545 0 00-.069.688A7.07 7.07 0 0016.91 24 7.1 7.1 0 0024 16.91a7.07 7.07 0 00-3.174-5.894zm-.259 3.006l-6.545 6.545a.544.544 0 01-.771 0 .545.545 0 010-.77l6.545-6.546a.545.545 0 11.771.771z" fill="#fff"/></svg>