<svg width="56" height="56" fill="none" xmlns="http://www.w3.org/2000/svg"><circle cx="28" cy="28" r="28" fill="url(#paint074)"/><path d="M34.748 36.589c.08.006.161.01.243.01 1.8 0 3.258-1.551 3.258-3.465a3.6 3.6 0 00-.61-2.019c.885-.619 1.47-1.685 1.47-2.897 0-1.46-.85-2.71-2.052-3.22.088-.314.137-.648.137-.994 0-1.848-1.36-3.358-3.073-3.46-.189-1.464-1.369-2.593-2.797-2.593-.625 0-1.21.216-1.684.582v18.554a3.354 3.354 0 002.34.962c1.13 0 2.133-.573 2.768-1.46zM27.36 18.544a2.7 2.7 0 00-1.684-.593c-1.428 0-2.608 1.129-2.797 2.594-1.713.101-3.073 1.611-3.073 3.46 0 .345.049.679.137.994-1.202.51-2.052 1.759-2.052 3.22 0 1.211.585 2.277 1.47 2.897a3.6 3.6 0 00-.61 2.018c0 1.914 1.459 3.465 3.258 3.465a3.1 3.1 0 00.243-.01c.635.887 1.639 1.46 2.768 1.46.901 0 1.722-.364 2.34-.962V18.544zm-14.264 5.354c1.473-5.337 5.747-9.552 11.168-11.02a4.393 4.393 0 01-.274-2.258 18.206 18.206 0 00-8.386 4.7c-2.349 2.31-3.977 5.137-4.777 8.22a4.59 4.59 0 012.268.357zm0 8.204a4.589 4.589 0 01-2.269.357c.8 3.084 2.428 5.911 4.777 8.22a18.207 18.207 0 008.386 4.7 4.391 4.391 0 01.275-2.258c-5.422-1.467-9.696-5.682-11.17-11.019zm30.808-8.204a4.589 4.589 0 012.269-.357c-.8-3.084-2.428-5.912-4.777-8.22a18.204 18.204 0 00-8.386-4.7 4.393 4.393 0 01-.275 2.258c5.422 1.467 9.696 5.682 11.17 11.019zm0 8.204c-1.473 5.337-5.747 9.552-11.168 11.02a4.393 4.393 0 01.274 2.258 18.205 18.205 0 008.386-4.7c2.349-2.31 3.977-5.137 4.777-8.22a4.616 4.616 0 01-2.269-.358zM28.5 13.469c1.253 0 2.268-1 2.268-2.234S29.753 9 28.5 9s-2.268 1-2.268 2.235c0 1.234 1.015 2.234 2.268 2.234zm17.232 12.297c-1.252 0-2.268 1-2.268 2.234s1.016 2.235 2.268 2.235c1.253 0 2.268-1 2.268-2.235 0-1.234-1.015-2.234-2.268-2.234zM13.536 28c0-1.234-1.016-2.235-2.268-2.235-1.253 0-2.268 1-2.268 2.235 0 1.234 1.015 2.235 2.268 2.235 1.252 0 2.268-1 2.268-2.235zM28.5 42.531c-1.253 0-2.268 1-2.268 2.235 0 1.233 1.015 2.234 2.268 2.234s2.268-1 2.268-2.234c0-1.235-1.015-2.235-2.268-2.235z" fill="#fff"/><defs><linearGradient id="paint074" x1="52.279" y1="50.371" x2="4.173" y2="2.504" gradientUnits="userSpaceOnUse"><stop stop-color="#2E36FD"/><stop offset="1" stop-color="#3CACCF"/></linearGradient></defs></svg>