<svg width="28" height="28" viewBox="0 0 28 28" fill="none" xmlns="http://www.w3.org/2000/svg">
<path d="M16.7464 2.33496H11.2631C10.0498 2.33496 9.05811 3.31496 9.05811 4.52829V5.62496C9.05811 6.83829 10.0381 7.81829 11.2514 7.81829H16.7464C17.9598 7.81829 18.9398 6.83829 18.9398 5.62496V4.52829C18.9514 3.31496 17.9598 2.33496 16.7464 2.33496Z" fill="#FF547D"/>
<path d="M20.1129 5.6238C20.1129 7.4788 18.5962 8.99546 16.7412 8.99546H11.2579C9.40289 8.99546 7.88622 7.4788 7.88622 5.6238C7.88622 4.97046 7.18622 4.56213 6.60289 4.86546C4.95789 5.74046 3.83789 7.4788 3.83789 9.4738V20.4521C3.83789 23.3221 6.18289 25.6671 9.05289 25.6671H18.9462C21.8162 25.6671 24.1612 23.3221 24.1612 20.4521V9.4738C24.1612 7.4788 23.0412 5.74046 21.3962 4.86546C20.8129 4.56213 20.1129 4.97046 20.1129 5.6238ZM14.4429 19.7755H9.33289C8.85456 19.7755 8.45789 19.3788 8.45789 18.9005C8.45789 18.4221 8.85456 18.0255 9.33289 18.0255H14.4429C14.9212 18.0255 15.3179 18.4221 15.3179 18.9005C15.3179 19.3788 14.9212 19.7755 14.4429 19.7755ZM17.4996 15.1088H9.33289C8.85456 15.1088 8.45789 14.7121 8.45789 14.2338C8.45789 13.7555 8.85456 13.3588 9.33289 13.3588H17.4996C17.9779 13.3588 18.3746 13.7555 18.3746 14.2338C18.3746 14.7121 17.9779 15.1088 17.4996 15.1088Z" fill="#FF547D"/>
</svg>
