<svg width="27" height="27" viewBox="0 0 27 27" fill="none" xmlns="http://www.w3.org/2000/svg">
<path d="M9.45 12.15H6.75V14.85H9.45V12.15Z" fill="white"/>
<path d="M14.85 12.15H12.15V14.85H14.85V12.15Z" fill="white"/>
<path d="M20.25 12.15H17.55V14.85H20.25V12.15Z" fill="white"/>
<path d="M9.45 17.55H6.75V20.25H9.45V17.55Z" fill="white"/>
<path d="M14.85 17.55H12.15V20.25H14.85V17.55Z" fill="white"/>
<path d="M20.25 17.55H17.55V20.25H20.25V17.55Z" fill="white"/>
<path d="M25.65 2.7H22.95V1.35C22.95 0.54 22.41 0 21.6 0C20.79 0 20.25 0.54 20.25 1.35V2.7H6.75V1.35C6.75 0.54 6.21 0 5.4 0C4.59 0 4.05 0.54 4.05 1.35V2.7H1.35C0.54 2.7 0 3.24 0 4.05V25.65C0 26.46 0.54 27 1.35 27H25.65C26.325 27 27 26.46 27 25.65V4.05C27 3.24 26.325 2.7 25.65 2.7ZM24.3 24.3H2.7V8.1H24.3V24.3Z" fill="white"/>
</svg>
