<svg width="36" height="34" viewBox="0 0 36 34" fill="none" xmlns="http://www.w3.org/2000/svg">
<path d="M9.12151 15.0834V8.78903H13.7827C14.6922 8.78903 15.4501 8.05981 15.4501 7.10031V2.4947C15.488 2.45632 15.5259 2.41794 15.5638 2.37956H26.8568C27.5389 2.37956 28.1074 2.95526 28.1074 3.6461V12.013L30.4569 9.40311V3.6461C30.4569 1.65034 28.8274 0 26.8568 0H15.5259C14.5785 0 13.669 0.383801 12.9869 1.07464L7.83305 6.33271C7.15093 7.02355 6.77197 7.90629 6.77197 8.90417V15.5439C7.3404 15.2369 7.98464 15.045 8.62887 15.045C8.81835 15.045 8.96993 15.045 9.12151 15.0834Z" fill="white"/>
<path d="M28.0316 24.2946V25.753C28.0316 26.4439 27.501 27.0195 26.781 27.0195H16.1702C16.1323 27.8255 16.0186 28.6315 15.8291 29.3991H26.8189C28.7895 29.3991 30.419 27.7488 30.419 25.753V21.9534L29.0548 23.4886C28.7516 23.7956 28.4105 24.0643 28.0316 24.2946Z" fill="white"/>
<path d="M20.8314 24.2178C20.6798 23.7189 20.6798 23.1432 20.8693 22.6442L21.1345 21.8382H15.0712C15.488 22.5675 15.7912 23.3734 15.9807 24.2178H20.8314Z" fill="white"/>
<path d="M23.8251 16.6953H12.949C12.3048 16.6953 11.7742 17.2326 11.7742 17.8851C11.7742 18.5376 12.3048 19.0749 12.949 19.0749H22.0061C22.2335 18.6143 22.4988 18.1538 22.8398 17.77L23.8251 16.6953Z" fill="white"/>
<path d="M24.2041 11.5524H12.949C12.3048 11.5524 11.7742 12.0897 11.7742 12.7422C11.7742 13.3946 12.3048 13.932 12.949 13.932H24.1662C24.8104 13.932 25.341 13.3946 25.341 12.7422C25.3789 12.0897 24.8483 11.5524 24.2041 11.5524Z" fill="white"/>
<path d="M24.2041 6.40947H18.9745C18.3302 6.40947 17.7997 6.94679 17.7997 7.59925C17.7997 8.25171 18.3302 8.78903 18.9745 8.78903H24.2041C24.8483 8.78903 25.3789 8.25171 25.3789 7.59925C25.3789 6.94679 24.8483 6.40947 24.2041 6.40947Z" fill="white"/>
<path d="M23.6357 24.0643L26.5536 22.8361C26.7431 22.7594 26.9705 22.6442 27.1221 22.4907L24.0146 19.6122C23.9009 19.8041 23.7872 19.996 23.7493 20.2263L22.802 23.2583C22.6125 23.7956 23.143 24.2946 23.6357 24.0643Z" fill="white"/>
<path d="M35.7245 11.7443L33.7918 9.97881C33.4507 9.63339 32.8823 9.67177 32.5791 10.0172L25.341 18.077L28.5242 21.0323L35.7624 12.9725C36.1034 12.627 36.0655 12.0513 35.7245 11.7443Z" fill="white"/>
<path d="M7.3783 21.7615C7.68147 19.996 8.66676 18.7678 9.19731 18.1921C9.46258 17.9235 9.31099 17.4245 8.93204 17.3862H8.89414C8.2878 17.271 7.68147 17.5397 7.3404 18.0386C6.58249 19.1133 6.4688 20.7252 6.4688 21.7615C5.44561 21.2242 2.98237 20.3414 1.16337 22.5291C-1.22408 25.2924 0.557032 31.1646 2.11077 33.0452C3.32344 34.5037 5.74878 33.928 6.62038 33.6593C6.84776 33.5825 7.03724 33.5825 7.26461 33.6593C8.13622 33.928 10.5616 34.5037 11.7742 33.0452C13.328 31.203 15.147 25.2924 12.7216 22.5291C10.8647 20.303 8.40149 21.2625 7.3783 21.7615ZM4.99086 31.203C4.87717 31.2797 4.72558 31.3565 4.53611 31.3565C4.30873 31.3565 4.11925 31.2414 3.96767 31.0878C2.94448 29.7445 1.95918 25.753 3.20975 24.2946C3.32344 24.141 3.51291 24.0643 3.70239 24.0643C3.89187 24.0643 4.08135 24.1027 4.23294 24.2178C4.53611 24.4865 4.574 24.947 4.30873 25.2541C3.70239 25.9833 4.30873 29.1305 5.10454 30.2051C5.21823 30.3586 5.29402 30.5505 5.25613 30.7424C5.21823 30.9343 5.14244 31.0878 4.99086 31.203Z" fill="white"/>
<path d="M5.18034 20.4949C5.4835 20.5717 5.82457 20.3414 5.78667 19.996C5.74878 19.4203 5.63509 18.5759 5.10454 17.9235C4.574 17.271 3.77819 16.964 3.24764 16.8488C2.94448 16.7721 2.60341 17.0024 2.64131 17.3478C2.6792 17.9235 2.79289 18.7678 3.32344 19.4203C3.81608 20.0728 4.6119 20.3798 5.18034 20.4949Z" fill="white"/>
</svg>
