<svg width="37" height="29" viewBox="0 0 37 29" fill="none" xmlns="http://www.w3.org/2000/svg">
<path fill-rule="evenodd" clip-rule="evenodd" d="M18.2136 0.891819C20.1213 0.830633 21.864 2.06335 22.3264 3.91917C22.852 6.03954 21.5015 8.1626 19.296 8.66873C17.0886 9.17486 14.884 7.86971 14.3584 5.74665C13.8309 3.62629 15.1832 1.50503 17.3888 0.997095C17.6648 0.93366 17.9404 0.901267 18.2136 0.891819Z" fill="white"/>
<path fill-rule="evenodd" clip-rule="evenodd" d="M14.8807 10.5079C13.1845 10.5079 11.3563 12.0713 10.9859 13.8965L10.3716 16.9095C10.1099 18.2052 10.2363 19.0325 10.7466 19.6579C11.1704 20.178 11.9256 20.5982 13.0627 20.9352C13.5084 21.0688 13.632 20.9212 13.632 20.5955V16.5653C13.632 16.1829 14.3825 15.9607 14.3825 16.5653V20.1411C14.3825 20.7408 14.4843 21.2735 15.3166 21.4368C16.326 21.6334 17.4343 21.727 18.4971 21.727V21.7108L18.5018 21.727C19.5646 21.727 20.6757 21.6334 21.6832 21.4368C22.5155 21.273 22.6201 20.7408 22.6201 20.1411V16.5653C22.6201 15.9607 23.3678 16.1829 23.3678 16.5653V20.5955C23.3678 20.9212 23.4933 21.0688 23.9361 20.9352C25.0742 20.5982 25.8294 20.178 26.2523 19.6579C26.7635 19.0321 26.8913 18.2052 26.6282 16.9095L26.0157 13.8965C25.6426 12.0708 23.8158 10.5079 22.1191 10.5079H14.8807Z" fill="white"/>
<path d="M33.5929 2.84842C34.8546 3.99656 35.4499 5.30845 35.3821 6.50428C35.3142 7.692 34.5805 8.73666 33.4433 9.21985C32.3061 9.70034 31.2986 9.54333 30.5635 8.94092C29.8227 8.33581 29.3408 7.30734 29.3454 6.00444C29.3482 5.7399 29.5513 5.70661 29.7037 5.7633C30.7159 6.13086 31.5528 6.44759 32.2522 7.0797C31.9502 5.58469 32.6905 4.06404 33.17 2.93705C33.2542 2.7355 33.4624 2.7292 33.5929 2.84842Z" fill="white"/>
<path d="M36.3069 15.5368C36.6963 17.17 36.4375 18.5804 35.6916 19.5391C34.9536 20.488 33.7454 20.964 32.5241 20.7507C31.3014 20.537 30.5565 19.8649 30.2874 18.9696C30.0188 18.0675 30.2093 16.9518 30.9627 15.8747C31.1151 15.6561 31.3056 15.7384 31.3999 15.8671C32.0273 16.7156 32.5427 17.43 32.7634 18.3321C33.368 16.9266 34.8565 16.0619 35.9021 15.3821C36.0889 15.2602 36.2651 15.3681 36.3069 15.5368Z" fill="white"/>
<path d="M33.6148 22.0442C33.2444 23.6818 32.3856 24.8466 31.2893 25.404C30.2019 25.9569 28.9002 25.8845 27.8886 25.184C26.8792 24.4857 26.5018 23.5698 26.6589 22.6488C26.8141 21.7234 27.4819 20.7948 28.6395 20.1316C28.8738 19.9962 29.0099 20.151 29.0387 20.3053C29.2293 21.3338 29.3775 22.194 29.1767 23.0987C30.346 22.0788 32.0738 21.9177 33.3202 21.7346C33.5404 21.704 33.6538 21.8732 33.6148 22.0442Z" fill="white"/>
<path d="M18.5008 29C19.3799 29 20.0925 28.3101 20.0925 27.4591C20.0925 26.6081 19.3799 25.9182 18.5008 25.9182C17.6218 25.9182 16.9092 26.6081 16.9092 27.4591C16.9092 28.3101 17.6218 29 18.5008 29Z" fill="white"/>
<path d="M30.6304 4.97148C28.3774 4.28224 28.179 2.82502 28.179 0.483763C28.179 0.00147445 28.2636 -0.0480141 28.6437 0.029818C31.1825 0.549448 32.2044 2.81288 31.2694 4.75373C31.1151 5.07226 30.9264 5.06236 30.6304 4.97148Z" fill="white"/>
<path d="M35.9481 8.76006C36.9184 10.1498 37.2015 11.5553 36.8631 12.7083C36.529 13.8524 35.5777 14.7167 34.3579 14.9443C33.138 15.1715 32.1914 14.8035 31.6105 14.0634C31.0249 13.3135 30.7879 12.2076 31.0877 10.9398C31.1513 10.682 31.3591 10.6915 31.4943 10.7787C32.3972 11.3528 33.1426 11.8396 33.6826 12.6035C33.7235 11.0829 34.7938 9.75658 35.515 8.75826C35.6433 8.57965 35.8491 8.61744 35.9481 8.76006Z" fill="white"/>
<path d="M28.6363 27.0843C27.5154 28.3638 26.1937 29.0032 24.9576 28.9987C23.728 28.9937 22.6122 28.3378 22.0578 27.2621C21.5034 26.1863 21.6149 25.2047 22.1986 24.4641C22.7841 23.7169 23.8223 23.199 25.163 23.1378C25.4372 23.1257 25.4827 23.3232 25.4316 23.4735C25.1049 24.4691 24.82 25.2938 24.2043 26.0037C25.729 25.6339 27.3365 26.2736 28.5247 26.6785C28.7353 26.7496 28.7525 26.9525 28.6363 27.0843Z" fill="white"/>
<path d="M3.40826 2.84842C2.1447 3.99656 1.55219 5.30845 1.61911 6.50428C1.68696 7.692 2.42074 8.73666 3.5579 9.21985C4.69599 9.70034 5.70257 9.54333 6.43867 8.94092C7.17943 8.33581 7.66041 7.30734 7.65577 6.00444C7.65298 5.7399 7.44804 5.70661 7.29561 5.7633C6.28625 6.13086 5.44837 6.44759 4.74711 7.0797C5.05196 5.58469 4.30888 4.06404 3.83209 2.93705C3.74658 2.7355 3.53885 2.7292 3.40826 2.84842Z" fill="white"/>
<path d="M0.695254 15.5368C0.304893 17.17 0.564669 18.5804 1.30682 19.5391C2.04572 20.488 3.25537 20.964 4.47804 20.7507C5.69978 20.537 6.44565 19.8649 6.71193 18.9696C6.98053 18.0675 6.78907 16.9518 6.0367 15.8747C5.88427 15.6561 5.69559 15.7384 5.60079 15.8671C4.97157 16.7156 4.45806 17.43 4.23825 18.3321C3.63272 16.9266 2.14145 16.0619 1.09584 15.3821C0.913206 15.2602 0.733361 15.3681 0.695254 15.5368Z" fill="white"/>
<path d="M3.38363 22.0442C3.7568 23.6818 4.61606 24.8466 5.71 25.404C6.79929 25.9569 8.10143 25.8845 9.11079 25.184C10.122 24.4857 10.4975 23.5698 10.3423 22.6488C10.1852 21.7234 9.51928 20.7948 8.3626 20.1316C8.12745 19.9962 7.99222 20.151 7.96341 20.3053C7.77194 21.3338 7.62231 22.194 7.82539 23.0987C6.65384 22.0788 4.92556 21.9177 3.68105 21.7346C3.46171 21.704 3.34553 21.8732 3.38363 22.0442Z" fill="white"/>
<path d="M6.37083 4.97148C8.62191 4.28224 8.8222 2.82502 8.8222 0.483763C8.8222 0.00147445 8.73762 -0.0480141 8.35749 0.029818C5.81596 0.549448 4.79498 2.81288 5.73184 4.75373C5.88427 5.07226 6.07294 5.06236 6.37083 4.97148Z" fill="white"/>
<path d="M1.05123 8.76006C0.0799708 10.1498 -0.200253 11.5553 0.136202 12.7083C0.472191 13.8524 1.42346 14.7167 2.64334 14.9443C3.86322 15.1715 4.80706 14.8035 5.39074 14.0634C5.97628 13.3135 6.21143 12.2076 5.91076 10.9398C5.85081 10.682 5.64215 10.6915 5.50692 10.7787C4.60398 11.3528 3.85857 11.8396 3.31857 12.6035C3.27489 11.0829 2.20744 9.75658 1.48713 8.75826C1.35794 8.57965 1.15253 8.61744 1.05123 8.76006Z" fill="white"/>
<path d="M8.36306 27.0843C9.48303 28.3638 10.8075 29.0032 12.0445 28.9987C13.2737 28.9937 14.39 28.3378 14.9434 27.2621C15.4978 26.1863 15.3863 25.2047 14.8036 24.4641C14.2152 23.7169 13.1789 23.199 11.8354 23.1378C11.5622 23.1257 11.5185 23.3232 11.5668 23.4735C11.8963 24.4691 12.1793 25.2938 12.7964 26.0037C11.2689 25.6339 9.66427 26.2736 8.47599 26.6785C8.26594 26.7496 8.24688 26.9525 8.36306 27.0843Z" fill="white"/>
</svg>
