<svg width="23" height="27" viewBox="0 0 23 27" fill="none" xmlns="http://www.w3.org/2000/svg">
<path d="M11.5 27C9.22552 27 7.00211 26.3333 5.11095 25.0841C3.21978 23.8349 1.7458 22.0594 0.87539 19.9821C0.00498273 17.9048 -0.222756 15.619 0.220974 13.4137C0.664704 11.2085 1.75997 9.18279 3.36828 7.59289C4.97658 6.00299 7.02568 4.92025 9.25646 4.4816C11.4872 4.04295 13.7995 4.26808 15.9009 5.12853C18.0022 5.98898 19.7983 7.44609 21.0619 9.31562C22.3255 11.1851 23 13.3831 23 15.6316C23 18.6467 21.7884 21.5383 19.6317 23.6703C17.4751 25.8023 14.55 27 11.5 27ZM11.5 7.10526C9.79414 7.10526 8.12658 7.60532 6.70821 8.54221C5.28984 9.47909 4.18435 10.8107 3.53154 12.3687C2.87874 13.9267 2.70793 15.641 3.04073 17.295C3.37353 18.9489 4.19498 20.4682 5.40121 21.6606C6.60744 22.853 8.14426 23.6651 9.81735 23.9941C11.4904 24.3231 13.2246 24.1542 14.8006 23.5089C16.3767 22.8635 17.7237 21.7707 18.6714 20.3685C19.6192 18.9664 20.125 17.3179 20.125 15.6316C20.125 13.3703 19.2163 11.2016 17.5988 9.60256C15.9813 8.00357 13.7875 7.10526 11.5 7.10526Z" fill="#E7E7E7"/>
<path d="M14.375 2.84211H8.625C8.24375 2.84211 7.87812 2.69239 7.60854 2.42589C7.33895 2.15939 7.1875 1.79794 7.1875 1.42105C7.1875 1.04417 7.33895 0.682716 7.60854 0.416217C7.87812 0.149718 8.24375 0 8.625 0H14.375C14.7563 0 15.1219 0.149718 15.3915 0.416217C15.6611 0.682716 15.8125 1.04417 15.8125 1.42105C15.8125 1.79794 15.6611 2.15939 15.3915 2.42589C15.1219 2.69239 14.7563 2.84211 14.375 2.84211Z" fill="#E7E7E7"/>
<path d="M11.5 17.0526C11.1188 17.0526 10.7531 16.9029 10.4835 16.6364C10.214 16.3699 10.0625 16.0085 10.0625 15.6316V11.3684C10.0625 10.9915 10.214 10.6301 10.4835 10.3636C10.7531 10.0971 11.1188 9.94737 11.5 9.94737C11.8813 9.94737 12.2469 10.0971 12.5165 10.3636C12.7861 10.6301 12.9375 10.9915 12.9375 11.3684V15.6316C12.9375 16.0085 12.7861 16.3699 12.5165 16.6364C12.2469 16.9029 11.8813 17.0526 11.5 17.0526Z" fill="#E7E7E7"/>
</svg>
