<svg width="30" height="38" viewBox="0 0 30 38" fill="none" xmlns="http://www.w3.org/2000/svg">
<path d="M28.6775 7.9969H25.7328C24.8502 7.9969 24.0976 7.4273 23.81 6.63164C23.8045 6.61722 23.7979 6.60746 23.7891 6.60279C22.6397 2.78015 19.1446 0 15.0113 0C10.8512 0 7.33949 2.81662 6.21255 6.67532C5.9132 7.44808 5.17525 7.99732 4.30888 7.99732H1.32248C0.592029 7.99732 0 8.59958 0 9.3418L2.14048 31.4443C2.59742 35.1401 5.69598 38 9.45328 38H20.5467C24.304 38 27.4026 35.1401 27.8595 31.4443L30 9.3418C30 8.59873 29.408 7.9969 28.6775 7.9969ZM15.0113 17.0181C10.8412 17.0181 7.46081 13.5801 7.46081 9.33798C7.46081 5.09587 10.8408 1.65748 15.0113 1.65748C19.1809 1.65748 22.5609 5.09545 22.5609 9.33798C22.5609 13.5801 19.1809 17.0181 15.0113 17.0181Z" fill="url(#paint0_linear_164_971)"/>
<path d="M15.0113 8.06688C14.3213 8.06688 13.7617 8.63648 13.7617 9.33798C13.7617 9.77441 13.9781 10.1578 14.3067 10.3877C14.4255 10.4823 14.5018 10.6294 14.5018 10.7953V14.6421C14.5018 14.9284 14.7298 15.1608 15.0113 15.1608C15.2927 15.1608 15.5207 14.9284 15.5207 14.6421V10.8385C15.5237 10.8279 15.5262 10.8144 15.5262 10.7949C15.5262 10.629 15.6025 10.4819 15.7213 10.3873C15.7225 10.386 15.7209 10.3839 15.7217 10.3826C16.0469 10.1527 16.2608 9.77059 16.2608 9.33798C16.2604 8.63648 15.7013 8.06688 15.0113 8.06688Z" fill="url(#paint1_linear_164_971)"/>
<path d="M19.8542 9.42111V9.4648C19.8542 9.7901 20.114 10.0488 20.4346 10.0488C20.7548 10.0488 21.0145 9.77908 21.0145 9.4525V9.41136C21.0116 9.08733 20.7527 8.82606 20.4346 8.82606C20.4329 8.82606 20.4317 8.82606 20.4296 8.82606C20.1094 8.82861 19.8517 9.09454 19.8542 9.42111Z" fill="url(#paint2_linear_164_971)"/>
<path d="M11.5846 12.9354C11.4716 12.8205 11.3232 12.7624 11.1743 12.7624C11.0263 12.7624 10.8779 12.8205 10.7641 12.9354C10.5377 13.1653 10.5377 13.539 10.7641 13.7697L10.8033 13.8083C11.0326 14.0356 11.4003 14.0309 11.6234 13.7985C11.8468 13.564 11.8427 13.1916 11.6129 12.9643L11.5846 12.9354Z" fill="url(#paint3_linear_164_971)"/>
<path d="M14.9804 4.52712H15.0279C15.3481 4.52712 15.6 4.26204 15.6 3.93589C15.6 3.61059 15.3319 3.34678 15.0113 3.34678H14.9804C14.6598 3.34678 14.4001 3.61059 14.4001 3.93589C14.4001 4.26204 14.6598 4.52712 14.9804 4.52712Z" fill="url(#paint4_linear_164_971)"/>
<path d="M11.5687 5.98781L11.6008 5.95515C11.8272 5.72528 11.8272 5.35162 11.6008 5.12047C11.4874 5.00554 11.3386 4.9487 11.1906 4.9487C11.0422 4.9487 10.8942 5.00554 10.7803 5.12047L10.7449 5.15695C10.5198 5.38895 10.5206 5.7626 10.7487 5.99121C10.9755 6.22151 11.3428 6.22023 11.5687 5.98781Z" fill="url(#paint5_linear_164_971)"/>
<path d="M18.8736 12.7361C18.7235 12.7361 18.5722 12.7955 18.4588 12.9138L18.4321 12.9414C18.2045 13.17 18.2028 13.5449 18.4288 13.7756C18.6547 14.008 19.0212 14.008 19.2488 13.7794L19.2893 13.737C19.5128 13.5038 19.5086 13.1309 19.2789 12.9023C19.1659 12.7916 19.02 12.7361 18.8736 12.7361Z" fill="url(#paint6_linear_164_971)"/>
<path d="M18.4442 5.97721C18.6697 6.20921 19.0366 6.21048 19.2639 5.9806C19.4915 5.752 19.4932 5.37834 19.2672 5.14762L19.228 5.10775C19.115 4.99408 18.9683 4.93852 18.8211 4.93852C18.6714 4.93852 18.5209 4.9979 18.4079 5.11496C18.1832 5.34696 18.1861 5.72104 18.4146 5.94837L18.4442 5.97721Z" fill="url(#paint7_linear_164_971)"/>
<path d="M9.58794 8.84091C9.26775 8.84091 9.00842 9.10472 9.00842 9.43087V9.50594C9.01009 9.83124 9.274 10.0976 9.59128 10.0912C9.91189 10.09 10.1695 9.82403 10.1679 9.49873V9.43087C10.1683 9.10429 9.90856 8.84091 9.58794 8.84091Z" fill="url(#paint8_linear_164_971)"/>
<defs>
<linearGradient id="paint0_linear_164_971" x1="3.5" y1="-3.58595e-07" x2="24" y2="38" gradientUnits="userSpaceOnUse">
<stop stop-color="#FD8D71"/>
<stop offset="1" stop-color="#EB4040"/>
</linearGradient>
<linearGradient id="paint1_linear_164_971" x1="3.5" y1="-3.58595e-07" x2="24" y2="38" gradientUnits="userSpaceOnUse">
<stop stop-color="#FD8D71"/>
<stop offset="1" stop-color="#EB4040"/>
</linearGradient>
<linearGradient id="paint2_linear_164_971" x1="3.5" y1="-3.58595e-07" x2="24" y2="38" gradientUnits="userSpaceOnUse">
<stop stop-color="#FD8D71"/>
<stop offset="1" stop-color="#EB4040"/>
</linearGradient>
<linearGradient id="paint3_linear_164_971" x1="3.5" y1="-3.58595e-07" x2="24" y2="38" gradientUnits="userSpaceOnUse">
<stop stop-color="#FD8D71"/>
<stop offset="1" stop-color="#EB4040"/>
</linearGradient>
<linearGradient id="paint4_linear_164_971" x1="3.5" y1="-3.58595e-07" x2="24" y2="38" gradientUnits="userSpaceOnUse">
<stop stop-color="#FD8D71"/>
<stop offset="1" stop-color="#EB4040"/>
</linearGradient>
<linearGradient id="paint5_linear_164_971" x1="3.5" y1="-3.58595e-07" x2="24" y2="38" gradientUnits="userSpaceOnUse">
<stop stop-color="#FD8D71"/>
<stop offset="1" stop-color="#EB4040"/>
</linearGradient>
<linearGradient id="paint6_linear_164_971" x1="3.5" y1="-3.58595e-07" x2="24" y2="38" gradientUnits="userSpaceOnUse">
<stop stop-color="#FD8D71"/>
<stop offset="1" stop-color="#EB4040"/>
</linearGradient>
<linearGradient id="paint7_linear_164_971" x1="3.5" y1="-3.58595e-07" x2="24" y2="38" gradientUnits="userSpaceOnUse">
<stop stop-color="#FD8D71"/>
<stop offset="1" stop-color="#EB4040"/>
</linearGradient>
<linearGradient id="paint8_linear_164_971" x1="3.5" y1="-3.58595e-07" x2="24" y2="38" gradientUnits="userSpaceOnUse">
<stop stop-color="#FD8D71"/>
<stop offset="1" stop-color="#EB4040"/>
</linearGradient>
</defs>
</svg>
