<svg width="320" height="351" fill="none" xmlns="http://www.w3.org/2000/svg"><path d="M162.788 180.028c12.104-6.431 20.831-13.689 19.491-16.211-1.34-2.521-12.239.648-24.343 7.079-12.105 6.431-20.831 13.689-19.491 16.211 1.339 2.522 12.238-.647 24.343-7.079z" stroke="url(#paint0_linear)" stroke-width="2" stroke-miterlimit="10"/><path d="M162.976 180.143c12.932-7.201 22.251-15.129 20.816-17.707-1.436-2.578-13.083 1.17-26.015 8.371-12.932 7.201-22.252 15.128-20.816 17.706 1.435 2.578 13.082-1.169 26.015-8.37z" stroke="url(#paint1_linear)" stroke-width="2" stroke-miterlimit="10"/><path d="M163.216 180.218c13.822-8.045 23.784-16.701 22.251-19.334-1.532-2.632-13.979 1.755-27.8 9.801-13.822 8.045-23.784 16.701-22.251 19.334 1.532 2.632 13.979-1.755 27.8-9.801z" stroke="url(#paint2_linear)" stroke-width="2" stroke-miterlimit="10"/><path d="M163.257 180.374c14.728-8.94 25.345-18.364 23.715-21.049-1.63-2.685-14.89 2.386-29.617 11.326-14.727 8.94-25.345 18.364-23.715 21.049 1.63 2.685 14.89-2.386 29.617-11.326z" stroke="url(#paint3_linear)" stroke-width="2" stroke-miterlimit="10"/><path d="M163.533 180.455c15.651-9.89 26.938-20.125 25.209-22.861-1.729-2.736-15.819 3.063-31.47 12.953-15.652 9.891-26.938 20.126-25.21 22.862 1.729 2.736 15.819-3.063 31.471-12.954z" stroke="url(#paint4_linear)" stroke-width="2" stroke-miterlimit="10"/><path d="M163.675 180.497c16.63-10.92 28.628-22.03 26.799-24.815-1.828-2.785-16.791 3.81-33.421 14.73-16.629 10.92-28.628 22.03-26.799 24.814 1.829 2.785 16.792-3.809 33.421-14.729z" stroke="url(#paint5_linear)" stroke-width="2" stroke-miterlimit="10"/><path d="M163.824 180.712c17.62-12.004 30.319-24.063 28.363-26.934-1.956-2.872-17.826 4.532-35.447 16.536-17.62 12.004-30.318 24.063-28.362 26.935 1.956 2.871 17.826-4.533 35.446-16.537z" stroke="url(#paint6_linear)" stroke-width="2" stroke-miterlimit="10"/><path d="M164.063 180.842c18.662-13.174 32.099-26.25 30.013-29.205-2.086-2.954-18.905 5.33-37.567 18.505-18.662 13.174-32.1 26.25-30.014 29.205 2.086 2.955 18.906-5.33 37.568-18.505z" stroke="url(#paint7_linear)" stroke-width="2" stroke-miterlimit="10"/><path d="M164.361 180.945c19.674-14.377 33.825-28.493 31.607-31.529-2.218-3.035-19.966 6.159-39.64 20.536-19.675 14.377-33.826 28.492-31.608 31.528 2.219 3.036 19.966-6.158 39.641-20.535z" stroke="url(#paint8_linear)" stroke-width="2" stroke-miterlimit="10"/><path d="M164.629 181.203c20.734-15.664 35.635-30.887 33.283-34.001-2.353-3.114-21.068 7.06-41.803 22.725-20.734 15.664-35.635 30.887-33.282 34.001 2.352 3.114 21.068-7.06 41.802-22.725z" stroke="url(#paint9_linear)" stroke-width="2" stroke-miterlimit="10"/><path d="M165.004 181.293c21.836-17.046 37.495-33.48 34.976-36.707-2.519-3.226-22.262 7.977-44.097 25.023-21.836 17.046-37.495 33.48-34.976 36.707 2.519 3.226 22.262-7.977 44.097-25.023z" stroke="url(#paint10_linear)" stroke-width="2" stroke-miterlimit="10"/><path d="M165.206 181.567c22.9-18.456 39.286-36.122 36.598-39.457-2.687-3.335-23.431 8.923-46.332 27.38-22.9 18.456-39.286 36.122-36.598 39.457 2.687 3.335 23.431-8.923 46.332-27.38z" stroke="url(#paint11_linear)" stroke-width="2" stroke-miterlimit="10"/><path d="M165.447 181.711c24.003-19.963 41.143-38.934 38.282-42.373-2.861-3.44-24.638 9.955-48.641 29.918-24.002 19.963-41.142 38.934-38.281 42.374 2.86 3.439 24.637-9.956 48.64-29.919z" stroke="url(#paint12_linear)" stroke-width="2" stroke-miterlimit="10"/><path d="M165.851 181.851c25.105-21.537 42.996-41.866 39.959-45.406-3.037-3.54-25.851 11.049-50.957 32.586-25.105 21.536-42.996 41.865-39.959 45.405 3.037 3.54 25.851-11.049 50.957-32.585z" stroke="url(#paint13_linear)" stroke-width="2" stroke-miterlimit="10"/><path d="M166.277 182.147c26.24-23.206 44.879-44.996 41.632-48.668-3.248-3.672-27.152 12.164-53.392 35.37-26.24 23.207-44.879 44.996-41.632 48.668 3.248 3.672 27.152-12.163 53.392-35.37z" stroke="url(#paint14_linear)" stroke-width="2" stroke-miterlimit="10"/><path d="M166.676 182.443c27.328-24.914 46.648-48.218 43.154-52.052-3.495-3.833-28.482 13.255-55.811 38.169-27.328 24.913-46.649 48.217-43.154 52.051 3.495 3.834 28.482-13.255 55.811-38.168z" stroke="url(#paint15_linear)" stroke-width="2" stroke-miterlimit="10"/><path d="M167.208 182.674c28.408-26.693 48.399-51.565 44.651-55.554-3.748-3.989-29.816 14.416-58.224 41.109-28.408 26.693-48.398 51.565-44.65 55.554 3.748 3.989 29.815-14.416 58.223-41.109z" stroke="url(#paint16_linear)" stroke-width="2" stroke-miterlimit="10"/><path d="M167.67 182.937c29.473-28.541 50.118-55.032 46.111-59.169-4.006-4.137-31.146 15.646-60.619 44.187-29.473 28.542-50.117 55.033-46.111 59.17 4.007 4.137 31.147-15.646 60.619-44.188z" stroke="url(#paint17_linear)" stroke-width="2" stroke-miterlimit="10"/><path d="M168.139 183.334c30.554-30.493 51.834-58.708 47.531-63.02-4.304-4.312-32.561 16.912-63.115 47.406-30.553 30.493-51.834 58.708-47.53 63.02 4.303 4.312 32.56-16.912 63.114-47.406z" stroke="url(#paint18_linear)" stroke-width="2" stroke-miterlimit="10"/><path d="M168.726 183.605c31.547-32.457 53.386-62.399 48.779-66.877-4.608-4.478-33.917 18.203-65.464 50.659-31.547 32.457-53.386 62.399-48.779 66.877 4.608 4.479 33.917-18.202 65.464-50.659z" stroke="url(#paint19_linear)" stroke-width="2" stroke-miterlimit="10"/><path d="M169.377 183.952c32.546-34.53 54.887-66.332 49.9-71.033-4.988-4.701-35.415 19.48-67.961 54.01s-54.887 66.332-49.9 71.033c4.987 4.701 35.414-19.48 67.961-54.01z" stroke="url(#paint20_linear)" stroke-width="2" stroke-miterlimit="10"/><path d="M170.041 184.326c33.487-36.645 56.305-70.307 50.965-75.187-5.341-4.88-36.816 20.87-70.303 57.514-33.488 36.644-56.305 70.306-50.965 75.186 5.341 4.88 36.816-20.869 70.303-57.513z" stroke="url(#paint21_linear)" stroke-width="2" stroke-miterlimit="10"/><path d="M170.77 184.661c34.358-38.804 57.531-74.405 51.758-79.516-5.772-5.111-38.304 22.203-72.662 61.007-34.357 38.805-57.53 74.405-51.758 79.516 5.773 5.111 38.305-22.202 72.662-61.007z" stroke="url(#paint22_linear)" stroke-width="2" stroke-miterlimit="10"/><path d="M171.703 185.221c35.197-41.041 58.663-78.657 52.413-84.017-6.25-5.36-39.85 23.565-75.047 64.607-35.197 41.041-58.663 78.657-52.413 84.017 6.25 5.36 39.85-23.565 75.047-64.607z" stroke="url(#paint23_linear)" stroke-width="2" stroke-miterlimit="10"/><path d="M172.514 185.638c35.924-43.288 59.584-82.914 52.846-88.506-6.739-5.592-41.325 24.966-77.249 68.255-35.925 43.288-59.585 82.914-52.846 88.506 6.739 5.593 41.324-24.966 77.249-68.255z" stroke="url(#paint24_linear)" stroke-width="2" stroke-miterlimit="10"/><path d="M173.582 186.014c36.604-45.624 60.35-87.366 53.036-93.233-7.313-5.868-42.915 26.361-79.52 71.985-36.604 45.624-60.35 87.366-53.036 93.233 7.313 5.868 42.915-26.361 79.52-71.985z" stroke="url(#paint25_linear)" stroke-width="2" stroke-miterlimit="10"/><path d="M174.718 186.587c37.173-47.963 60.874-91.831 52.936-97.983-7.937-6.152-44.506 27.742-81.68 75.705-37.173 47.962-60.874 91.831-52.937 97.983 7.938 6.152 44.507-27.743 81.681-75.705z" stroke="url(#paint26_linear)" stroke-width="2" stroke-miterlimit="10"/><path d="M176.004 187.244c37.653-50.347 61.163-96.406 52.512-102.877-8.652-6.47-46.189 29.099-83.843 79.446C107.02 214.16 83.51 260.219 92.161 266.69c8.652 6.47 46.189-29.099 83.843-79.446z" stroke="url(#paint27_linear)" stroke-width="2" stroke-miterlimit="10"/><path d="M177.31 187.721c37.979-52.706 61.16-100.913 51.777-107.674-9.383-6.761-47.776 30.485-85.755 83.191-37.978 52.706-61.16 100.913-51.777 107.674 9.383 6.761 47.777-30.485 85.755-83.191z" stroke="url(#paint28_linear)" stroke-width="2" stroke-miterlimit="10"/><path d="M178.83 188.332c38.204-55.109 60.867-105.543 50.619-112.646-10.247-7.104-49.525 31.812-87.728 86.921-38.204 55.109-60.867 105.542-50.62 112.646 10.248 7.104 49.526-31.812 87.729-86.921z" stroke="url(#paint29_linear)" stroke-width="2" stroke-miterlimit="10"/><path d="M180.644 188.935c38.298-57.524 60.256-110.207 49.045-117.671-11.212-7.465-51.347 33.116-89.646 90.64-38.298 57.523-60.256 110.206-49.044 117.671 11.211 7.464 51.347-33.117 89.645-90.64z" stroke="url(#paint30_linear)" stroke-width="2" stroke-miterlimit="10"/><path d="M182.55 189.559c38.254-59.941 59.345-114.864 47.108-122.674-12.237-7.81-53.168 34.452-91.422 94.393S78.891 276.141 91.128 283.951c12.237 7.81 53.168-34.451 91.422-94.392z" stroke="url(#paint31_linear)" stroke-width="2" stroke-miterlimit="10"/><path d="M184.73 190.286c38.013-62.279 57.927-119.42 44.48-127.628-13.447-8.207-55.163 35.626-93.176 97.906-38.012 62.279-57.926 119.42-44.48 127.627 13.448 8.208 55.164-35.626 93.176-97.905z" stroke="url(#paint32_linear)" stroke-width="2" stroke-miterlimit="10"/><path d="M187.054 191.006c37.624-64.615 56.188-123.947 41.463-132.52-14.725-8.574-57.161 36.857-94.785 101.472-37.624 64.615-56.188 123.947-41.463 132.521 14.725 8.573 57.161-36.857 94.785-101.473z" stroke="url(#paint33_linear)" stroke-width="2" stroke-miterlimit="10"/><path d="M189.598 191.7c37.048-66.907 53.952-128.416 37.756-137.384-16.196-8.968-59.359 38-96.407 104.907-37.048 66.907-53.952 128.416-37.756 137.384 16.196 8.968 59.359-38 96.407-104.907z" stroke="url(#paint34_linear)" stroke-width="2" stroke-miterlimit="10"/><path d="M192.713 192.523c36.301-69.15 51.245-132.81 33.378-142.19-17.867-9.38-61.779 39.074-98.08 108.224-36.301 69.151-51.245 132.812-33.378 142.191 17.867 9.38 61.779-39.074 98.08-108.225z" stroke="url(#paint35_linear)" stroke-width="2" stroke-miterlimit="10"/><path d="M196.071 193.18c35.34-71.301 48.018-137.017 28.316-146.782-19.701-9.765-64.321 40.12-99.66 111.42-35.34 71.3-48.018 137.016-28.316 146.781 19.701 9.765 64.321-40.119 99.66-111.419z" stroke="url(#paint36_linear)" stroke-width="2" stroke-miterlimit="10"/><path d="M199.857 193.84c34.188-73.387 44.24-141.107 22.453-151.257-21.788-10.15-67.164 41.114-101.352 114.501S76.718 298.19 98.505 308.34c21.787 10.15 67.164-41.114 101.352-114.5z" stroke="url(#paint37_linear)" stroke-width="2" stroke-miterlimit="10"/><path d="M203.913 194.453c32.82-75.355 39.9-144.947 15.815-155.437-24.086-10.49-70.217 42.093-103.037 117.449-32.82 75.355-39.9 144.946-15.815 155.436 24.086 10.491 70.217-42.093 103.037-117.448z" stroke="url(#paint38_linear)" stroke-width="2" stroke-miterlimit="10"/><path d="M208.72 195.124c31.25-77.2 34.911-148.555 8.178-159.377-26.733-10.821-73.738 42.99-104.988 120.189-31.25 77.2-34.91 148.556-8.178 159.377 26.734 10.821 73.738-42.989 104.988-120.189z" stroke="url(#paint39_linear)" stroke-width="2" stroke-miterlimit="10"/><path d="M213.986 195.514c29.467-78.916 29.32-151.866-.33-162.937-29.649-11.07-77.572 43.929-107.04 122.845-29.467 78.916-29.32 151.865.33 162.936 29.649 11.071 77.573-43.928 107.04-122.844z" stroke="url(#paint40_linear)" stroke-width="2" stroke-miterlimit="10"/><path d="M220.02 195.901c27.488-80.482 23.046-154.853-9.921-166.113-32.968-11.26-81.976 44.856-109.464 125.338S77.589 309.98 110.556 321.24c32.968 11.259 81.977-44.857 109.464-125.339z" stroke="url(#paint41_linear)" stroke-width="2" stroke-miterlimit="10"/><path d="M226.786 196.015c25.312-81.893 16.084-157.474-20.611-168.816-36.694-11.342-86.961 45.85-112.273 127.743-25.311 81.893-16.084 157.475 20.611 168.816 36.695 11.342 86.961-45.851 112.273-127.743z" stroke="url(#paint42_linear)" stroke-width="2" stroke-miterlimit="10"/><path d="M234.271 195.904c22.96-83.171 8.438-159.743-32.437-171.027C160.96 13.593 109.211 71.869 86.25 155.04s-8.44 159.743 32.436 171.027c40.875 11.285 92.624-46.992 115.585-130.164z" stroke="url(#paint43_linear)" stroke-width="2" stroke-miterlimit="10"/><path d="M242.839 195.494c20.447-84.269.091-161.545-45.466-172.599-45.557-11.054-99.065 48.299-119.512 132.569-20.448 84.269-.092 161.545 45.465 172.599 45.558 11.054 99.065-48.299 119.513-132.569z" stroke="url(#paint44_linear)" stroke-width="2" stroke-miterlimit="10"/><path d="M252.278 194.661c17.774-85.165-8.984-162.796-59.766-173.394C141.729 10.668 86.154 71.117 68.379 156.28c-17.774 85.165 8.984 162.797 59.766 173.395 50.783 10.598 106.359-49.85 124.133-135.015z" stroke="url(#paint45_linear)" stroke-width="2" stroke-miterlimit="10"/><path d="M262.947 193.404c14.988-85.939-18.813-163.62-75.496-173.505C130.768 10.014 72.668 71.667 57.68 157.606c-14.988 85.938 18.813 163.619 75.496 173.505 56.683 9.885 114.784-51.768 129.771-137.707z" stroke="url(#paint46_linear)" stroke-width="2" stroke-miterlimit="10"/><path d="M274.787 191.413c12.094-86.542-29.344-163.86-92.554-172.692-63.21-8.833-124.256 54.162-136.35 140.705-12.093 86.542 29.345 163.86 92.555 172.693 63.21 8.833 124.256-54.163 136.349-140.706z" stroke="url(#paint47_linear)" stroke-width="2" stroke-miterlimit="10"/><path d="M287.87 188.873c9.119-86.949-40.621-163.426-111.098-170.817-70.476-7.392-135.001 57.102-144.12 144.05-9.12 86.948 40.621 163.425 111.098 170.817 70.477 7.391 135.002-57.102 144.12-144.05z" stroke="url(#paint48_linear)" stroke-width="2" stroke-miterlimit="10"/><path d="M302.556 185.365c6.102-87.266-52.613-162.461-131.143-167.952-78.53-5.492-147.139 60.8-153.24 148.067-6.103 87.267 52.612 162.462 131.143 167.953 78.53 5.491 147.138-60.801 153.24-148.068z" stroke="url(#paint49_linear)" stroke-width="2" stroke-miterlimit="10"/><path d="M160.354 333.869c87.476 0 158.39-70.913 158.39-158.39 0-87.476-70.914-158.39-158.39-158.39-87.477 0-158.39 70.914-158.39 158.39 0 87.477 70.913 158.39 158.39 158.39z" stroke="url(#paint50_linear)" stroke-width="2" stroke-miterlimit="10"/><defs><linearGradient id="paint0_linear" x1="181.305" y1="169.013" x2="170.172" y2="155.654" gradientUnits="userSpaceOnUse"><stop stop-color="#2E36FD"/><stop offset="1" stop-color="#3CACCF"/></linearGradient><linearGradient id="paint1_linear" x1="182.757" y1="167.899" x2="171.08" y2="154.198" gradientUnits="userSpaceOnUse"><stop stop-color="#2E36FD"/><stop offset="1" stop-color="#3CACCF"/></linearGradient><linearGradient id="paint2_linear" x1="184.359" y1="166.629" x2="172.137" y2="152.589" gradientUnits="userSpaceOnUse"><stop stop-color="#2E36FD"/><stop offset="1" stop-color="#3CACCF"/></linearGradient><linearGradient id="paint3_linear" x1="185.787" y1="165.36" x2="173.013" y2="150.995" gradientUnits="userSpaceOnUse"><stop stop-color="#2E36FD"/><stop offset="1" stop-color="#3CACCF"/></linearGradient><linearGradient id="paint4_linear" x1="187.477" y1="163.932" x2="174.142" y2="149.252" gradientUnits="userSpaceOnUse"><stop stop-color="#2E36FD"/><stop offset="1" stop-color="#3CACCF"/></linearGradient><linearGradient id="paint5_linear" x1="189.119" y1="162.338" x2="175.219" y2="147.351" gradientUnits="userSpaceOnUse"><stop stop-color="#2E36FD"/><stop offset="1" stop-color="#3CACCF"/></linearGradient><linearGradient id="paint6_linear" x1="190.777" y1="160.819" x2="176.076" y2="145.363" gradientUnits="userSpaceOnUse"><stop stop-color="#2E36FD"/><stop offset="1" stop-color="#3CACCF"/></linearGradient><linearGradient id="paint7_linear" x1="192.604" y1="159.082" x2="177.093" y2="143.166" gradientUnits="userSpaceOnUse"><stop stop-color="#2E36FD"/><stop offset="1" stop-color="#3CACCF"/></linearGradient><linearGradient id="paint8_linear" x1="194.444" y1="157.267" x2="178.106" y2="140.913" gradientUnits="userSpaceOnUse"><stop stop-color="#2E36FD"/><stop offset="1" stop-color="#3CACCF"/></linearGradient><linearGradient id="paint9_linear" x1="196.326" y1="155.476" x2="179.157" y2="138.693" gradientUnits="userSpaceOnUse"><stop stop-color="#2E36FD"/><stop offset="1" stop-color="#3CACCF"/></linearGradient><linearGradient id="paint10_linear" x1="198.37" y1="153.355" x2="180.12" y2="135.991" gradientUnits="userSpaceOnUse"><stop stop-color="#2E36FD"/><stop offset="1" stop-color="#3CACCF"/></linearGradient><linearGradient id="paint11_linear" x1="200.183" y1="151.375" x2="180.837" y2="133.457" gradientUnits="userSpaceOnUse"><stop stop-color="#2E36FD"/><stop offset="1" stop-color="#3CACCF"/></linearGradient><linearGradient id="paint12_linear" x1="202.092" y1="149.116" x2="181.637" y2="130.663" gradientUnits="userSpaceOnUse"><stop stop-color="#2E36FD"/><stop offset="1" stop-color="#3CACCF"/></linearGradient><linearGradient id="paint13_linear" x1="204.163" y1="146.748" x2="182.581" y2="127.781" gradientUnits="userSpaceOnUse"><stop stop-color="#2E36FD"/><stop offset="1" stop-color="#3CACCF"/></linearGradient><linearGradient id="paint14_linear" x1="206.294" y1="144.375" x2="183.329" y2="124.757" gradientUnits="userSpaceOnUse"><stop stop-color="#2E36FD"/><stop offset="1" stop-color="#3CACCF"/></linearGradient><linearGradient id="paint15_linear" x1="208.31" y1="141.932" x2="183.692" y2="121.55" gradientUnits="userSpaceOnUse"><stop stop-color="#2E36FD"/><stop offset="1" stop-color="#3CACCF"/></linearGradient><linearGradient id="paint16_linear" x1="210.446" y1="139.313" x2="184.148" y2="118.206" gradientUnits="userSpaceOnUse"><stop stop-color="#2E36FD"/><stop offset="1" stop-color="#3CACCF"/></linearGradient><linearGradient id="paint17_linear" x1="212.486" y1="136.62" x2="184.485" y2="114.83" gradientUnits="userSpaceOnUse"><stop stop-color="#2E36FD"/><stop offset="1" stop-color="#3CACCF"/></linearGradient><linearGradient id="paint18_linear" x1="214.544" y1="133.889" x2="184.568" y2="111.313" gradientUnits="userSpaceOnUse"><stop stop-color="#2E36FD"/><stop offset="1" stop-color="#3CACCF"/></linearGradient><linearGradient id="paint19_linear" x1="216.58" y1="131.016" x2="184.59" y2="107.717" gradientUnits="userSpaceOnUse"><stop stop-color="#2E36FD"/><stop offset="1" stop-color="#3CACCF"/></linearGradient><linearGradient id="paint20_linear" x1="218.661" y1="128.027" x2="184.114" y2="103.795" gradientUnits="userSpaceOnUse"><stop stop-color="#2E36FD"/><stop offset="1" stop-color="#3CACCF"/></linearGradient><linearGradient id="paint21_linear" x1="220.674" y1="125.016" x2="183.792" y2="100.054" gradientUnits="userSpaceOnUse"><stop stop-color="#2E36FD"/><stop offset="1" stop-color="#3CACCF"/></linearGradient><linearGradient id="paint22_linear" x1="222.613" y1="121.875" x2="182.832" y2="96.023" gradientUnits="userSpaceOnUse"><stop stop-color="#2E36FD"/><stop offset="1" stop-color="#3CACCF"/></linearGradient><linearGradient id="paint23_linear" x1="224.689" y1="118.833" x2="181.705" y2="92.062" gradientUnits="userSpaceOnUse"><stop stop-color="#2E36FD"/><stop offset="1" stop-color="#3CACCF"/></linearGradient><linearGradient id="paint24_linear" x1="226.465" y1="115.637" x2="180.227" y2="88.077" gradientUnits="userSpaceOnUse"><stop stop-color="#2E36FD"/><stop offset="1" stop-color="#3CACCF"/></linearGradient><linearGradient id="paint25_linear" x1="228.391" y1="112.246" x2="178.309" y2="83.808" gradientUnits="userSpaceOnUse"><stop stop-color="#2E36FD"/><stop offset="1" stop-color="#3CACCF"/></linearGradient><linearGradient id="paint26_linear" x1="230.193" y1="109.043" x2="175.944" y2="79.79" gradientUnits="userSpaceOnUse"><stop stop-color="#2E36FD"/><stop offset="1" stop-color="#3CACCF"/></linearGradient><linearGradient id="paint27_linear" x1="231.973" y1="105.841" x2="172.952" y2="75.777" gradientUnits="userSpaceOnUse"><stop stop-color="#2E36FD"/><stop offset="1" stop-color="#3CACCF"/></linearGradient><linearGradient id="paint28_linear" x1="233.524" y1="102.509" x2="169.664" y2="71.869" gradientUnits="userSpaceOnUse"><stop stop-color="#2E36FD"/><stop offset="1" stop-color="#3CACCF"/></linearGradient><linearGradient id="paint29_linear" x1="235.082" y1="99.222" x2="165.496" y2="68.027" gradientUnits="userSpaceOnUse"><stop stop-color="#2E36FD"/><stop offset="1" stop-color="#3CACCF"/></linearGradient><linearGradient id="paint30_linear" x1="236.694" y1="95.903" x2="160.755" y2="64.335" gradientUnits="userSpaceOnUse"><stop stop-color="#2E36FD"/><stop offset="1" stop-color="#3CACCF"/></linearGradient><linearGradient id="paint31_linear" x1="238.157" y1="92.605" x2="155.531" y2="60.968" gradientUnits="userSpaceOnUse"><stop stop-color="#2E36FD"/><stop offset="1" stop-color="#3CACCF"/></linearGradient><linearGradient id="paint32_linear" x1="239.518" y1="89.516" x2="149.033" y2="58.086" gradientUnits="userSpaceOnUse"><stop stop-color="#2E36FD"/><stop offset="1" stop-color="#3CACCF"/></linearGradient><linearGradient id="paint33_linear" x1="240.767" y1="86.435" x2="142.111" y2="55.685" gradientUnits="userSpaceOnUse"><stop stop-color="#2E36FD"/><stop offset="1" stop-color="#3CACCF"/></linearGradient><linearGradient id="paint34_linear" x1="241.871" y1="83.388" x2="133.919" y2="53.852" gradientUnits="userSpaceOnUse"><stop stop-color="#2E36FD"/><stop offset="1" stop-color="#3CACCF"/></linearGradient><linearGradient id="paint35_linear" x1="243.205" y1="80.539" x2="124.867" y2="52.911" gradientUnits="userSpaceOnUse"><stop stop-color="#2E36FD"/><stop offset="1" stop-color="#3CACCF"/></linearGradient><linearGradient id="paint36_linear" x1="244.386" y1="77.68" x2="114.921" y2="52.876" gradientUnits="userSpaceOnUse"><stop stop-color="#2E36FD"/><stop offset="1" stop-color="#3CACCF"/></linearGradient><linearGradient id="paint37_linear" x1="245.604" y1="74.923" x2="103.827" y2="54.075" gradientUnits="userSpaceOnUse"><stop stop-color="#2E36FD"/><stop offset="1" stop-color="#3CACCF"/></linearGradient><linearGradient id="paint38_linear" x1="246.676" y1="72.323" x2="91.832" y2="56.794" gradientUnits="userSpaceOnUse"><stop stop-color="#2E36FD"/><stop offset="1" stop-color="#3CACCF"/></linearGradient><linearGradient id="paint39_linear" x1="248.054" y1="69.976" x2="78.794" y2="61.553" gradientUnits="userSpaceOnUse"><stop stop-color="#2E36FD"/><stop offset="1" stop-color="#3CACCF"/></linearGradient><linearGradient id="paint40_linear" x1="249.46" y1="67.581" x2="65.244" y2="68.256" gradientUnits="userSpaceOnUse"><stop stop-color="#2E36FD"/><stop offset="1" stop-color="#3CACCF"/></linearGradient><linearGradient id="paint41_linear" x1="251.179" y1="65.441" x2="51.126" y2="77.741" gradientUnits="userSpaceOnUse"><stop stop-color="#2E36FD"/><stop offset="1" stop-color="#3CACCF"/></linearGradient><linearGradient id="paint42_linear" x1="253.171" y1="63.31" x2="36.937" y2="90.118" gradientUnits="userSpaceOnUse"><stop stop-color="#2E36FD"/><stop offset="1" stop-color="#3CACCF"/></linearGradient><linearGradient id="paint43_linear" x1="255.443" y1="61.212" x2="23.125" y2="105.747" gradientUnits="userSpaceOnUse"><stop stop-color="#2E36FD"/><stop offset="1" stop-color="#3CACCF"/></linearGradient><linearGradient id="paint44_linear" x1="258.36" y1="59.162" x2="10.663" y2="124.963" gradientUnits="userSpaceOnUse"><stop stop-color="#2E36FD"/><stop offset="1" stop-color="#3CACCF"/></linearGradient><linearGradient id="paint45_linear" x1="261.701" y1="57.09" x2=".154" y2="147.882" gradientUnits="userSpaceOnUse"><stop stop-color="#2E36FD"/><stop offset="1" stop-color="#3CACCF"/></linearGradient><linearGradient id="paint46_linear" x1="265.847" y1="54.877" x2="-7.489" y2="174.557" gradientUnits="userSpaceOnUse"><stop stop-color="#2E36FD"/><stop offset="1" stop-color="#3CACCF"/></linearGradient><linearGradient id="paint47_linear" x1="270.768" y1="52.321" x2="-11.02" y2="204.206" gradientUnits="userSpaceOnUse"><stop stop-color="#2E36FD"/><stop offset="1" stop-color="#3CACCF"/></linearGradient><linearGradient id="paint48_linear" x1="276.535" y1="49.668" x2="-9.565" y2="236.739" gradientUnits="userSpaceOnUse"><stop stop-color="#2E36FD"/><stop offset="1" stop-color="#3CACCF"/></linearGradient><linearGradient id="paint49_linear" x1="283.553" y1="46.353" x2="-2.213" y2="270.629" gradientUnits="userSpaceOnUse"><stop stop-color="#2E36FD"/><stop offset="1" stop-color="#3CACCF"/></linearGradient><linearGradient id="paint50_linear" x1="297.697" y1="302.029" x2="25.572" y2="31.255" gradientUnits="userSpaceOnUse"><stop stop-color="#2E36FD"/><stop offset="1" stop-color="#3CACCF"/></linearGradient></defs></svg>