<svg width="27" height="22" fill="none" xmlns="http://www.w3.org/2000/svg"><path d="M24.269 2.11c-2.87-2.813-7.54-2.813-10.408 0l-.667.652-.666-.653C9.658-.703 4.99-.703 2.12 2.11-.69 4.865-.709 9.232 2.078 12.27c2.542 2.768 10.039 8.75 10.357 9.002.215.172.475.256.734.256h.025c.267.012.536-.078.76-.256.317-.253 7.814-6.234 10.357-9.003 2.787-3.036 2.768-7.403-.042-10.159zm-1.69 8.63c-1.982 2.158-7.43 6.609-9.385 8.188-1.956-1.579-7.402-6.029-9.384-8.187-1.944-2.118-1.962-5.134-.042-7.016a5.068 5.068 0 013.556-1.442 5.06 5.06 0 013.556 1.442l1.465 1.435c.175.171.394.273.625.31.374.078.78-.024 1.072-.31l1.466-1.435c1.961-1.922 5.152-1.922 7.113 0 1.92 1.882 1.901 4.898-.042 7.016z" fill="url(#paint0_linear)"/><defs><linearGradient id="paint0_linear" x1="21.441" y1="11.734" x2="4.837" y2="-2.417" gradientUnits="userSpaceOnUse"><stop stop-color="#2E36FD" stop-opacity=".01"/><stop offset=".464" stop-color="#3883E0"/><stop offset="1" stop-color="#3DABD0"/></linearGradient></defs></svg>